G75*
%MOIN*%
%OFA0B0*%
%FSLAX25Y25*%
%IPPOS*%
%LPD*%
%AMOC8*
5,1,8,0,0,1.08239X$1,22.5*
%
%ADD10C,0.00000*%
%ADD11C,0.00600*%
%ADD12C,0.00400*%
%ADD13C,0.00500*%
%ADD14C,0.01000*%
%ADD15R,0.03400X0.02400*%
%ADD16C,0.00300*%
%ADD17R,0.03000X0.73000*%
%ADD18R,0.02000X1.22000*%
%ADD19R,0.28500X0.03200*%
%ADD20R,0.18500X0.03200*%
D10*
X0052595Y0028933D02*
X0052595Y0157634D01*
X0247516Y0157634D01*
X0247516Y0028933D01*
X0052595Y0028933D01*
D11*
X0051595Y0032933D02*
X0051595Y0063433D01*
X0051595Y0124433D01*
X0051595Y0154933D01*
X0053595Y0154933D01*
X0053595Y0144933D01*
X0053595Y0134933D01*
X0055595Y0134933D01*
X0055595Y0134433D01*
X0065095Y0134433D01*
X0065193Y0134431D01*
X0065291Y0134425D01*
X0065389Y0134416D01*
X0065486Y0134402D01*
X0065583Y0134385D01*
X0065679Y0134364D01*
X0065774Y0134339D01*
X0065868Y0134311D01*
X0065960Y0134278D01*
X0066052Y0134243D01*
X0066142Y0134203D01*
X0066230Y0134161D01*
X0066317Y0134114D01*
X0066401Y0134065D01*
X0066484Y0134012D01*
X0066564Y0133956D01*
X0066643Y0133896D01*
X0066719Y0133834D01*
X0066792Y0133769D01*
X0066863Y0133701D01*
X0066931Y0133630D01*
X0066996Y0133557D01*
X0067058Y0133481D01*
X0067118Y0133402D01*
X0067174Y0133322D01*
X0067227Y0133239D01*
X0067276Y0133155D01*
X0067323Y0133068D01*
X0067365Y0132980D01*
X0067405Y0132890D01*
X0067440Y0132798D01*
X0067473Y0132706D01*
X0067501Y0132612D01*
X0067526Y0132517D01*
X0067547Y0132421D01*
X0067564Y0132324D01*
X0067578Y0132227D01*
X0067587Y0132129D01*
X0067593Y0132031D01*
X0067595Y0131933D01*
X0067595Y0131433D02*
X0108095Y0131433D01*
X0110095Y0133433D01*
X0110095Y0152933D01*
X0108095Y0154933D01*
X0068095Y0154933D01*
X0067595Y0154933D01*
X0067595Y0134933D01*
X0067595Y0131433D01*
X0067595Y0130433D01*
X0070595Y0130433D01*
X0070595Y0057433D01*
X0067595Y0057433D01*
X0067595Y0130433D01*
X0053595Y0134933D02*
X0053595Y0052933D01*
X0055595Y0052933D01*
X0055595Y0053433D01*
X0065095Y0053433D01*
X0067595Y0052933D02*
X0067595Y0056433D01*
X0108095Y0056433D01*
X0110095Y0054433D01*
X0110095Y0035433D01*
X0107595Y0032933D01*
X0068095Y0032933D01*
X0067595Y0032933D01*
X0055595Y0032933D01*
X0053595Y0032933D01*
X0053595Y0042933D01*
X0053595Y0052933D01*
X0051595Y0059433D02*
X0051593Y0059531D01*
X0051587Y0059629D01*
X0051578Y0059727D01*
X0051564Y0059824D01*
X0051547Y0059921D01*
X0051526Y0060017D01*
X0051501Y0060112D01*
X0051473Y0060206D01*
X0051440Y0060298D01*
X0051405Y0060390D01*
X0051365Y0060480D01*
X0051323Y0060568D01*
X0051276Y0060655D01*
X0051227Y0060739D01*
X0051174Y0060822D01*
X0051118Y0060902D01*
X0051058Y0060981D01*
X0050996Y0061057D01*
X0050931Y0061130D01*
X0050863Y0061201D01*
X0050792Y0061269D01*
X0050719Y0061334D01*
X0050643Y0061396D01*
X0050564Y0061456D01*
X0050484Y0061512D01*
X0050401Y0061565D01*
X0050317Y0061614D01*
X0050230Y0061661D01*
X0050142Y0061703D01*
X0050052Y0061743D01*
X0049960Y0061778D01*
X0049868Y0061811D01*
X0049774Y0061839D01*
X0049679Y0061864D01*
X0049583Y0061885D01*
X0049486Y0061902D01*
X0049389Y0061916D01*
X0049291Y0061925D01*
X0049193Y0061931D01*
X0049095Y0061933D01*
X0029095Y0061933D01*
X0029008Y0061935D01*
X0028921Y0061941D01*
X0028834Y0061950D01*
X0028748Y0061963D01*
X0028662Y0061980D01*
X0028577Y0062001D01*
X0028494Y0062026D01*
X0028411Y0062054D01*
X0028330Y0062085D01*
X0028250Y0062120D01*
X0028172Y0062159D01*
X0028095Y0062201D01*
X0028020Y0062246D01*
X0027948Y0062295D01*
X0027877Y0062346D01*
X0027809Y0062401D01*
X0027744Y0062458D01*
X0027681Y0062519D01*
X0027620Y0062582D01*
X0027563Y0062647D01*
X0027508Y0062715D01*
X0027457Y0062786D01*
X0027408Y0062858D01*
X0027363Y0062933D01*
X0027321Y0063010D01*
X0027282Y0063088D01*
X0027247Y0063168D01*
X0027216Y0063249D01*
X0027188Y0063332D01*
X0027163Y0063415D01*
X0027142Y0063500D01*
X0027125Y0063586D01*
X0027112Y0063672D01*
X0027103Y0063759D01*
X0027097Y0063846D01*
X0027095Y0063933D01*
X0027095Y0064933D01*
X0027095Y0122933D01*
X0027095Y0123933D01*
X0027097Y0124020D01*
X0027103Y0124107D01*
X0027112Y0124194D01*
X0027125Y0124280D01*
X0027142Y0124366D01*
X0027163Y0124451D01*
X0027188Y0124534D01*
X0027216Y0124617D01*
X0027247Y0124698D01*
X0027282Y0124778D01*
X0027321Y0124856D01*
X0027363Y0124933D01*
X0027408Y0125008D01*
X0027457Y0125080D01*
X0027508Y0125151D01*
X0027563Y0125219D01*
X0027620Y0125284D01*
X0027681Y0125347D01*
X0027744Y0125408D01*
X0027809Y0125465D01*
X0027877Y0125520D01*
X0027948Y0125571D01*
X0028020Y0125620D01*
X0028095Y0125665D01*
X0028172Y0125707D01*
X0028250Y0125746D01*
X0028330Y0125781D01*
X0028411Y0125812D01*
X0028494Y0125840D01*
X0028577Y0125865D01*
X0028662Y0125886D01*
X0028748Y0125903D01*
X0028834Y0125916D01*
X0028921Y0125925D01*
X0029008Y0125931D01*
X0029095Y0125933D01*
X0049095Y0125933D01*
X0049193Y0125935D01*
X0049291Y0125941D01*
X0049389Y0125950D01*
X0049486Y0125964D01*
X0049583Y0125981D01*
X0049679Y0126002D01*
X0049774Y0126027D01*
X0049868Y0126055D01*
X0049960Y0126088D01*
X0050052Y0126123D01*
X0050142Y0126163D01*
X0050230Y0126205D01*
X0050317Y0126252D01*
X0050401Y0126301D01*
X0050484Y0126354D01*
X0050564Y0126410D01*
X0050643Y0126470D01*
X0050719Y0126532D01*
X0050792Y0126597D01*
X0050863Y0126665D01*
X0050931Y0126736D01*
X0050996Y0126809D01*
X0051058Y0126885D01*
X0051118Y0126964D01*
X0051174Y0127044D01*
X0051227Y0127127D01*
X0051276Y0127211D01*
X0051323Y0127298D01*
X0051365Y0127386D01*
X0051405Y0127476D01*
X0051440Y0127568D01*
X0051473Y0127660D01*
X0051501Y0127754D01*
X0051526Y0127849D01*
X0051547Y0127945D01*
X0051564Y0128042D01*
X0051578Y0128139D01*
X0051587Y0128237D01*
X0051593Y0128335D01*
X0051595Y0128433D01*
X0053595Y0154933D02*
X0055595Y0154933D01*
X0067595Y0154933D01*
X0091095Y0143233D02*
X0091097Y0143394D01*
X0091103Y0143554D01*
X0091113Y0143715D01*
X0091127Y0143875D01*
X0091145Y0144035D01*
X0091166Y0144194D01*
X0091192Y0144353D01*
X0091222Y0144511D01*
X0091255Y0144668D01*
X0091293Y0144825D01*
X0091334Y0144980D01*
X0091379Y0145134D01*
X0091428Y0145287D01*
X0091481Y0145439D01*
X0091537Y0145590D01*
X0091598Y0145739D01*
X0091661Y0145887D01*
X0091729Y0146033D01*
X0091800Y0146177D01*
X0091874Y0146319D01*
X0091952Y0146460D01*
X0092034Y0146598D01*
X0092119Y0146735D01*
X0092207Y0146869D01*
X0092299Y0147001D01*
X0092394Y0147131D01*
X0092492Y0147259D01*
X0092593Y0147384D01*
X0092697Y0147506D01*
X0092804Y0147626D01*
X0092914Y0147743D01*
X0093027Y0147858D01*
X0093143Y0147969D01*
X0093262Y0148078D01*
X0093383Y0148183D01*
X0093507Y0148286D01*
X0093633Y0148386D01*
X0093761Y0148482D01*
X0093892Y0148575D01*
X0094026Y0148665D01*
X0094161Y0148752D01*
X0094299Y0148835D01*
X0094438Y0148915D01*
X0094580Y0148991D01*
X0094723Y0149064D01*
X0094868Y0149133D01*
X0095015Y0149199D01*
X0095163Y0149261D01*
X0095313Y0149319D01*
X0095464Y0149374D01*
X0095617Y0149425D01*
X0095771Y0149472D01*
X0095926Y0149515D01*
X0096082Y0149554D01*
X0096238Y0149590D01*
X0096396Y0149621D01*
X0096554Y0149649D01*
X0096713Y0149673D01*
X0096873Y0149693D01*
X0097033Y0149709D01*
X0097193Y0149721D01*
X0097354Y0149729D01*
X0097515Y0149733D01*
X0097675Y0149733D01*
X0097836Y0149729D01*
X0097997Y0149721D01*
X0098157Y0149709D01*
X0098317Y0149693D01*
X0098477Y0149673D01*
X0098636Y0149649D01*
X0098794Y0149621D01*
X0098952Y0149590D01*
X0099108Y0149554D01*
X0099264Y0149515D01*
X0099419Y0149472D01*
X0099573Y0149425D01*
X0099726Y0149374D01*
X0099877Y0149319D01*
X0100027Y0149261D01*
X0100175Y0149199D01*
X0100322Y0149133D01*
X0100467Y0149064D01*
X0100610Y0148991D01*
X0100752Y0148915D01*
X0100891Y0148835D01*
X0101029Y0148752D01*
X0101164Y0148665D01*
X0101298Y0148575D01*
X0101429Y0148482D01*
X0101557Y0148386D01*
X0101683Y0148286D01*
X0101807Y0148183D01*
X0101928Y0148078D01*
X0102047Y0147969D01*
X0102163Y0147858D01*
X0102276Y0147743D01*
X0102386Y0147626D01*
X0102493Y0147506D01*
X0102597Y0147384D01*
X0102698Y0147259D01*
X0102796Y0147131D01*
X0102891Y0147001D01*
X0102983Y0146869D01*
X0103071Y0146735D01*
X0103156Y0146598D01*
X0103238Y0146460D01*
X0103316Y0146319D01*
X0103390Y0146177D01*
X0103461Y0146033D01*
X0103529Y0145887D01*
X0103592Y0145739D01*
X0103653Y0145590D01*
X0103709Y0145439D01*
X0103762Y0145287D01*
X0103811Y0145134D01*
X0103856Y0144980D01*
X0103897Y0144825D01*
X0103935Y0144668D01*
X0103968Y0144511D01*
X0103998Y0144353D01*
X0104024Y0144194D01*
X0104045Y0144035D01*
X0104063Y0143875D01*
X0104077Y0143715D01*
X0104087Y0143554D01*
X0104093Y0143394D01*
X0104095Y0143233D01*
X0104093Y0143072D01*
X0104087Y0142912D01*
X0104077Y0142751D01*
X0104063Y0142591D01*
X0104045Y0142431D01*
X0104024Y0142272D01*
X0103998Y0142113D01*
X0103968Y0141955D01*
X0103935Y0141798D01*
X0103897Y0141641D01*
X0103856Y0141486D01*
X0103811Y0141332D01*
X0103762Y0141179D01*
X0103709Y0141027D01*
X0103653Y0140876D01*
X0103592Y0140727D01*
X0103529Y0140579D01*
X0103461Y0140433D01*
X0103390Y0140289D01*
X0103316Y0140147D01*
X0103238Y0140006D01*
X0103156Y0139868D01*
X0103071Y0139731D01*
X0102983Y0139597D01*
X0102891Y0139465D01*
X0102796Y0139335D01*
X0102698Y0139207D01*
X0102597Y0139082D01*
X0102493Y0138960D01*
X0102386Y0138840D01*
X0102276Y0138723D01*
X0102163Y0138608D01*
X0102047Y0138497D01*
X0101928Y0138388D01*
X0101807Y0138283D01*
X0101683Y0138180D01*
X0101557Y0138080D01*
X0101429Y0137984D01*
X0101298Y0137891D01*
X0101164Y0137801D01*
X0101029Y0137714D01*
X0100891Y0137631D01*
X0100752Y0137551D01*
X0100610Y0137475D01*
X0100467Y0137402D01*
X0100322Y0137333D01*
X0100175Y0137267D01*
X0100027Y0137205D01*
X0099877Y0137147D01*
X0099726Y0137092D01*
X0099573Y0137041D01*
X0099419Y0136994D01*
X0099264Y0136951D01*
X0099108Y0136912D01*
X0098952Y0136876D01*
X0098794Y0136845D01*
X0098636Y0136817D01*
X0098477Y0136793D01*
X0098317Y0136773D01*
X0098157Y0136757D01*
X0097997Y0136745D01*
X0097836Y0136737D01*
X0097675Y0136733D01*
X0097515Y0136733D01*
X0097354Y0136737D01*
X0097193Y0136745D01*
X0097033Y0136757D01*
X0096873Y0136773D01*
X0096713Y0136793D01*
X0096554Y0136817D01*
X0096396Y0136845D01*
X0096238Y0136876D01*
X0096082Y0136912D01*
X0095926Y0136951D01*
X0095771Y0136994D01*
X0095617Y0137041D01*
X0095464Y0137092D01*
X0095313Y0137147D01*
X0095163Y0137205D01*
X0095015Y0137267D01*
X0094868Y0137333D01*
X0094723Y0137402D01*
X0094580Y0137475D01*
X0094438Y0137551D01*
X0094299Y0137631D01*
X0094161Y0137714D01*
X0094026Y0137801D01*
X0093892Y0137891D01*
X0093761Y0137984D01*
X0093633Y0138080D01*
X0093507Y0138180D01*
X0093383Y0138283D01*
X0093262Y0138388D01*
X0093143Y0138497D01*
X0093027Y0138608D01*
X0092914Y0138723D01*
X0092804Y0138840D01*
X0092697Y0138960D01*
X0092593Y0139082D01*
X0092492Y0139207D01*
X0092394Y0139335D01*
X0092299Y0139465D01*
X0092207Y0139597D01*
X0092119Y0139731D01*
X0092034Y0139868D01*
X0091952Y0140006D01*
X0091874Y0140147D01*
X0091800Y0140289D01*
X0091729Y0140433D01*
X0091661Y0140579D01*
X0091598Y0140727D01*
X0091537Y0140876D01*
X0091481Y0141027D01*
X0091428Y0141179D01*
X0091379Y0141332D01*
X0091334Y0141486D01*
X0091293Y0141641D01*
X0091255Y0141798D01*
X0091222Y0141955D01*
X0091192Y0142113D01*
X0091166Y0142272D01*
X0091145Y0142431D01*
X0091127Y0142591D01*
X0091113Y0142751D01*
X0091103Y0142912D01*
X0091097Y0143072D01*
X0091095Y0143233D01*
X0125095Y0142433D02*
X0125095Y0135433D01*
X0125097Y0135373D01*
X0125102Y0135312D01*
X0125111Y0135253D01*
X0125124Y0135194D01*
X0125140Y0135135D01*
X0125160Y0135078D01*
X0125183Y0135023D01*
X0125210Y0134968D01*
X0125239Y0134916D01*
X0125272Y0134865D01*
X0125308Y0134816D01*
X0125346Y0134770D01*
X0125388Y0134726D01*
X0125432Y0134684D01*
X0125478Y0134646D01*
X0125527Y0134610D01*
X0125578Y0134577D01*
X0125630Y0134548D01*
X0125685Y0134521D01*
X0125740Y0134498D01*
X0125797Y0134478D01*
X0125856Y0134462D01*
X0125915Y0134449D01*
X0125974Y0134440D01*
X0126035Y0134435D01*
X0126095Y0134433D01*
X0127595Y0134433D01*
X0128095Y0134933D01*
X0147095Y0134933D01*
X0147595Y0134433D01*
X0149095Y0134433D01*
X0149155Y0134435D01*
X0149216Y0134440D01*
X0149275Y0134449D01*
X0149334Y0134462D01*
X0149393Y0134478D01*
X0149450Y0134498D01*
X0149505Y0134521D01*
X0149560Y0134548D01*
X0149612Y0134577D01*
X0149663Y0134610D01*
X0149712Y0134646D01*
X0149758Y0134684D01*
X0149802Y0134726D01*
X0149844Y0134770D01*
X0149882Y0134816D01*
X0149918Y0134865D01*
X0149951Y0134916D01*
X0149980Y0134968D01*
X0150007Y0135023D01*
X0150030Y0135078D01*
X0150050Y0135135D01*
X0150066Y0135194D01*
X0150079Y0135253D01*
X0150088Y0135312D01*
X0150093Y0135373D01*
X0150095Y0135433D01*
X0150095Y0142433D01*
X0150093Y0142493D01*
X0150088Y0142554D01*
X0150079Y0142613D01*
X0150066Y0142672D01*
X0150050Y0142731D01*
X0150030Y0142788D01*
X0150007Y0142843D01*
X0149980Y0142898D01*
X0149951Y0142950D01*
X0149918Y0143001D01*
X0149882Y0143050D01*
X0149844Y0143096D01*
X0149802Y0143140D01*
X0149758Y0143182D01*
X0149712Y0143220D01*
X0149663Y0143256D01*
X0149612Y0143289D01*
X0149560Y0143318D01*
X0149505Y0143345D01*
X0149450Y0143368D01*
X0149393Y0143388D01*
X0149334Y0143404D01*
X0149275Y0143417D01*
X0149216Y0143426D01*
X0149155Y0143431D01*
X0149095Y0143433D01*
X0147595Y0143433D01*
X0147095Y0142933D01*
X0128095Y0142933D01*
X0127595Y0143433D01*
X0126095Y0143433D01*
X0126035Y0143431D01*
X0125974Y0143426D01*
X0125915Y0143417D01*
X0125856Y0143404D01*
X0125797Y0143388D01*
X0125740Y0143368D01*
X0125685Y0143345D01*
X0125630Y0143318D01*
X0125578Y0143289D01*
X0125527Y0143256D01*
X0125478Y0143220D01*
X0125432Y0143182D01*
X0125388Y0143140D01*
X0125346Y0143096D01*
X0125308Y0143050D01*
X0125272Y0143001D01*
X0125239Y0142950D01*
X0125210Y0142898D01*
X0125183Y0142843D01*
X0125160Y0142788D01*
X0125140Y0142731D01*
X0125124Y0142672D01*
X0125111Y0142613D01*
X0125102Y0142554D01*
X0125097Y0142493D01*
X0125095Y0142433D01*
X0125095Y0113933D02*
X0140095Y0113933D01*
X0142595Y0111433D01*
X0142595Y0106433D01*
X0140095Y0103933D01*
X0142595Y0101433D01*
X0142595Y0096433D01*
X0140095Y0093933D01*
X0142595Y0091433D01*
X0142595Y0086433D01*
X0140095Y0083933D01*
X0142595Y0081433D01*
X0142595Y0076433D01*
X0140095Y0073933D01*
X0125095Y0073933D01*
X0122595Y0076433D01*
X0122595Y0081433D01*
X0125095Y0083933D01*
X0122595Y0086433D01*
X0122595Y0091433D01*
X0125095Y0093933D01*
X0122595Y0096433D01*
X0122595Y0101433D01*
X0125095Y0103933D01*
X0122595Y0106433D01*
X0122595Y0111433D01*
X0125095Y0113933D01*
X0176095Y0133933D02*
X0183595Y0133933D01*
X0183597Y0133807D01*
X0183603Y0133682D01*
X0183613Y0133557D01*
X0183627Y0133432D01*
X0183644Y0133307D01*
X0183666Y0133183D01*
X0183691Y0133060D01*
X0183721Y0132938D01*
X0183754Y0132817D01*
X0183791Y0132697D01*
X0183831Y0132578D01*
X0183876Y0132461D01*
X0183924Y0132344D01*
X0183976Y0132230D01*
X0184031Y0132117D01*
X0184090Y0132006D01*
X0184152Y0131897D01*
X0184218Y0131790D01*
X0184287Y0131685D01*
X0184359Y0131582D01*
X0184434Y0131481D01*
X0184513Y0131383D01*
X0184595Y0131288D01*
X0184679Y0131195D01*
X0184767Y0131105D01*
X0184857Y0131017D01*
X0184950Y0130933D01*
X0185045Y0130851D01*
X0185143Y0130772D01*
X0185244Y0130697D01*
X0185347Y0130625D01*
X0185452Y0130556D01*
X0185559Y0130490D01*
X0185668Y0130428D01*
X0185779Y0130369D01*
X0185892Y0130314D01*
X0186006Y0130262D01*
X0186123Y0130214D01*
X0186240Y0130169D01*
X0186359Y0130129D01*
X0186479Y0130092D01*
X0186600Y0130059D01*
X0186722Y0130029D01*
X0186845Y0130004D01*
X0186969Y0129982D01*
X0187094Y0129965D01*
X0187219Y0129951D01*
X0187344Y0129941D01*
X0187469Y0129935D01*
X0187595Y0129933D01*
X0187721Y0129935D01*
X0187846Y0129941D01*
X0187971Y0129951D01*
X0188096Y0129965D01*
X0188221Y0129982D01*
X0188345Y0130004D01*
X0188468Y0130029D01*
X0188590Y0130059D01*
X0188711Y0130092D01*
X0188831Y0130129D01*
X0188950Y0130169D01*
X0189067Y0130214D01*
X0189184Y0130262D01*
X0189298Y0130314D01*
X0189411Y0130369D01*
X0189522Y0130428D01*
X0189631Y0130490D01*
X0189738Y0130556D01*
X0189843Y0130625D01*
X0189946Y0130697D01*
X0190047Y0130772D01*
X0190145Y0130851D01*
X0190240Y0130933D01*
X0190333Y0131017D01*
X0190423Y0131105D01*
X0190511Y0131195D01*
X0190595Y0131288D01*
X0190677Y0131383D01*
X0190756Y0131481D01*
X0190831Y0131582D01*
X0190903Y0131685D01*
X0190972Y0131790D01*
X0191038Y0131897D01*
X0191100Y0132006D01*
X0191159Y0132117D01*
X0191214Y0132230D01*
X0191266Y0132344D01*
X0191314Y0132461D01*
X0191359Y0132578D01*
X0191399Y0132697D01*
X0191436Y0132817D01*
X0191469Y0132938D01*
X0191499Y0133060D01*
X0191524Y0133183D01*
X0191546Y0133307D01*
X0191563Y0133432D01*
X0191577Y0133557D01*
X0191587Y0133682D01*
X0191593Y0133807D01*
X0191595Y0133933D01*
X0199095Y0133933D01*
X0199095Y0053933D01*
X0176095Y0053933D01*
X0176095Y0133933D01*
X0167795Y0152533D02*
X0167887Y0152652D01*
X0167981Y0152769D01*
X0168079Y0152883D01*
X0168179Y0152995D01*
X0168283Y0153105D01*
X0168388Y0153211D01*
X0168497Y0153316D01*
X0168608Y0153417D01*
X0168722Y0153515D01*
X0168838Y0153611D01*
X0168956Y0153704D01*
X0169077Y0153793D01*
X0169200Y0153880D01*
X0169325Y0153963D01*
X0169452Y0154044D01*
X0169581Y0154121D01*
X0169712Y0154195D01*
X0169845Y0154266D01*
X0169979Y0154333D01*
X0170115Y0154397D01*
X0170253Y0154457D01*
X0170392Y0154514D01*
X0170533Y0154567D01*
X0170675Y0154617D01*
X0170818Y0154664D01*
X0170962Y0154706D01*
X0171107Y0154746D01*
X0171253Y0154781D01*
X0171400Y0154813D01*
X0171548Y0154841D01*
X0171696Y0154865D01*
X0171845Y0154886D01*
X0171995Y0154903D01*
X0172144Y0154916D01*
X0172294Y0154925D01*
X0172445Y0154931D01*
X0172595Y0154933D01*
X0167859Y0145250D02*
X0167953Y0145131D01*
X0168051Y0145015D01*
X0168151Y0144901D01*
X0168255Y0144790D01*
X0168361Y0144682D01*
X0168469Y0144576D01*
X0168581Y0144474D01*
X0168695Y0144374D01*
X0168811Y0144276D01*
X0168930Y0144182D01*
X0169051Y0144091D01*
X0169175Y0144003D01*
X0169301Y0143918D01*
X0169428Y0143837D01*
X0169558Y0143758D01*
X0169690Y0143683D01*
X0169823Y0143612D01*
X0169959Y0143543D01*
X0170096Y0143478D01*
X0170234Y0143417D01*
X0170375Y0143359D01*
X0170516Y0143305D01*
X0170659Y0143254D01*
X0170803Y0143207D01*
X0170948Y0143163D01*
X0171095Y0143124D01*
X0171242Y0143088D01*
X0171390Y0143055D01*
X0171539Y0143027D01*
X0171689Y0143002D01*
X0171839Y0142981D01*
X0171989Y0142964D01*
X0172141Y0142950D01*
X0172292Y0142941D01*
X0172443Y0142935D01*
X0172595Y0142933D01*
X0177477Y0152420D02*
X0177386Y0152545D01*
X0177292Y0152667D01*
X0177194Y0152786D01*
X0177094Y0152903D01*
X0176990Y0153017D01*
X0176884Y0153129D01*
X0176775Y0153237D01*
X0176663Y0153343D01*
X0176548Y0153446D01*
X0176431Y0153546D01*
X0176311Y0153644D01*
X0176189Y0153737D01*
X0176065Y0153828D01*
X0175938Y0153916D01*
X0175809Y0154000D01*
X0175677Y0154081D01*
X0175544Y0154158D01*
X0175409Y0154232D01*
X0175272Y0154303D01*
X0175133Y0154370D01*
X0174993Y0154433D01*
X0174850Y0154493D01*
X0174707Y0154549D01*
X0174562Y0154601D01*
X0174416Y0154650D01*
X0174268Y0154695D01*
X0174120Y0154736D01*
X0173970Y0154773D01*
X0173820Y0154807D01*
X0173668Y0154836D01*
X0173516Y0154862D01*
X0173364Y0154884D01*
X0173211Y0154901D01*
X0173057Y0154915D01*
X0172903Y0154925D01*
X0172749Y0154931D01*
X0172595Y0154933D01*
X0177331Y0145250D02*
X0177237Y0145131D01*
X0177139Y0145015D01*
X0177039Y0144901D01*
X0176935Y0144790D01*
X0176829Y0144682D01*
X0176721Y0144576D01*
X0176609Y0144474D01*
X0176495Y0144374D01*
X0176379Y0144276D01*
X0176260Y0144182D01*
X0176139Y0144091D01*
X0176015Y0144003D01*
X0175889Y0143918D01*
X0175762Y0143837D01*
X0175632Y0143758D01*
X0175500Y0143683D01*
X0175367Y0143612D01*
X0175231Y0143543D01*
X0175094Y0143478D01*
X0174956Y0143417D01*
X0174815Y0143359D01*
X0174674Y0143305D01*
X0174531Y0143254D01*
X0174387Y0143207D01*
X0174242Y0143163D01*
X0174095Y0143124D01*
X0173948Y0143088D01*
X0173800Y0143055D01*
X0173651Y0143027D01*
X0173501Y0143002D01*
X0173351Y0142981D01*
X0173201Y0142964D01*
X0173049Y0142950D01*
X0172898Y0142941D01*
X0172747Y0142935D01*
X0172595Y0142933D01*
X0192595Y0154933D02*
X0192749Y0154931D01*
X0192903Y0154925D01*
X0193057Y0154915D01*
X0193211Y0154901D01*
X0193364Y0154884D01*
X0193516Y0154862D01*
X0193668Y0154836D01*
X0193820Y0154807D01*
X0193970Y0154773D01*
X0194120Y0154736D01*
X0194268Y0154695D01*
X0194416Y0154650D01*
X0194562Y0154601D01*
X0194707Y0154549D01*
X0194850Y0154493D01*
X0194993Y0154433D01*
X0195133Y0154370D01*
X0195272Y0154303D01*
X0195409Y0154232D01*
X0195544Y0154158D01*
X0195677Y0154081D01*
X0195809Y0154000D01*
X0195938Y0153916D01*
X0196065Y0153828D01*
X0196189Y0153737D01*
X0196311Y0153644D01*
X0196431Y0153546D01*
X0196548Y0153446D01*
X0196663Y0153343D01*
X0196775Y0153237D01*
X0196884Y0153129D01*
X0196990Y0153017D01*
X0197094Y0152903D01*
X0197194Y0152786D01*
X0197292Y0152667D01*
X0197386Y0152545D01*
X0197477Y0152420D01*
X0192595Y0142933D02*
X0192443Y0142935D01*
X0192292Y0142941D01*
X0192141Y0142950D01*
X0191989Y0142964D01*
X0191839Y0142981D01*
X0191689Y0143002D01*
X0191539Y0143027D01*
X0191390Y0143055D01*
X0191242Y0143088D01*
X0191095Y0143124D01*
X0190948Y0143163D01*
X0190803Y0143207D01*
X0190659Y0143254D01*
X0190516Y0143305D01*
X0190375Y0143359D01*
X0190234Y0143417D01*
X0190096Y0143478D01*
X0189959Y0143543D01*
X0189823Y0143612D01*
X0189690Y0143683D01*
X0189558Y0143758D01*
X0189428Y0143837D01*
X0189301Y0143918D01*
X0189175Y0144003D01*
X0189051Y0144091D01*
X0188930Y0144182D01*
X0188811Y0144276D01*
X0188695Y0144374D01*
X0188581Y0144474D01*
X0188469Y0144576D01*
X0188361Y0144682D01*
X0188255Y0144790D01*
X0188151Y0144901D01*
X0188051Y0145015D01*
X0187953Y0145131D01*
X0187859Y0145250D01*
X0192595Y0142933D02*
X0192747Y0142935D01*
X0192898Y0142941D01*
X0193049Y0142950D01*
X0193201Y0142964D01*
X0193351Y0142981D01*
X0193501Y0143002D01*
X0193651Y0143027D01*
X0193800Y0143055D01*
X0193948Y0143088D01*
X0194095Y0143124D01*
X0194242Y0143163D01*
X0194387Y0143207D01*
X0194531Y0143254D01*
X0194674Y0143305D01*
X0194815Y0143359D01*
X0194956Y0143417D01*
X0195094Y0143478D01*
X0195231Y0143543D01*
X0195367Y0143612D01*
X0195500Y0143683D01*
X0195632Y0143758D01*
X0195762Y0143837D01*
X0195889Y0143918D01*
X0196015Y0144003D01*
X0196139Y0144091D01*
X0196260Y0144182D01*
X0196379Y0144276D01*
X0196495Y0144374D01*
X0196609Y0144474D01*
X0196721Y0144576D01*
X0196829Y0144682D01*
X0196935Y0144790D01*
X0197039Y0144901D01*
X0197139Y0145015D01*
X0197237Y0145131D01*
X0197331Y0145250D01*
X0192595Y0154933D02*
X0192445Y0154931D01*
X0192294Y0154925D01*
X0192144Y0154916D01*
X0191995Y0154903D01*
X0191845Y0154886D01*
X0191696Y0154865D01*
X0191548Y0154841D01*
X0191400Y0154813D01*
X0191253Y0154781D01*
X0191107Y0154746D01*
X0190962Y0154706D01*
X0190818Y0154664D01*
X0190675Y0154617D01*
X0190533Y0154567D01*
X0190392Y0154514D01*
X0190253Y0154457D01*
X0190115Y0154397D01*
X0189979Y0154333D01*
X0189845Y0154266D01*
X0189712Y0154195D01*
X0189581Y0154121D01*
X0189452Y0154044D01*
X0189325Y0153963D01*
X0189200Y0153880D01*
X0189077Y0153793D01*
X0188956Y0153704D01*
X0188838Y0153611D01*
X0188722Y0153515D01*
X0188608Y0153417D01*
X0188497Y0153316D01*
X0188388Y0153211D01*
X0188283Y0153105D01*
X0188179Y0152995D01*
X0188079Y0152883D01*
X0187981Y0152769D01*
X0187887Y0152652D01*
X0187795Y0152533D01*
X0212595Y0154933D02*
X0212749Y0154931D01*
X0212903Y0154925D01*
X0213057Y0154915D01*
X0213211Y0154901D01*
X0213364Y0154884D01*
X0213516Y0154862D01*
X0213668Y0154836D01*
X0213820Y0154807D01*
X0213970Y0154773D01*
X0214120Y0154736D01*
X0214268Y0154695D01*
X0214416Y0154650D01*
X0214562Y0154601D01*
X0214707Y0154549D01*
X0214850Y0154493D01*
X0214993Y0154433D01*
X0215133Y0154370D01*
X0215272Y0154303D01*
X0215409Y0154232D01*
X0215544Y0154158D01*
X0215677Y0154081D01*
X0215809Y0154000D01*
X0215938Y0153916D01*
X0216065Y0153828D01*
X0216189Y0153737D01*
X0216311Y0153644D01*
X0216431Y0153546D01*
X0216548Y0153446D01*
X0216663Y0153343D01*
X0216775Y0153237D01*
X0216884Y0153129D01*
X0216990Y0153017D01*
X0217094Y0152903D01*
X0217194Y0152786D01*
X0217292Y0152667D01*
X0217386Y0152545D01*
X0217477Y0152420D01*
X0212595Y0142933D02*
X0212443Y0142935D01*
X0212292Y0142941D01*
X0212141Y0142950D01*
X0211989Y0142964D01*
X0211839Y0142981D01*
X0211689Y0143002D01*
X0211539Y0143027D01*
X0211390Y0143055D01*
X0211242Y0143088D01*
X0211095Y0143124D01*
X0210948Y0143163D01*
X0210803Y0143207D01*
X0210659Y0143254D01*
X0210516Y0143305D01*
X0210375Y0143359D01*
X0210234Y0143417D01*
X0210096Y0143478D01*
X0209959Y0143543D01*
X0209823Y0143612D01*
X0209690Y0143683D01*
X0209558Y0143758D01*
X0209428Y0143837D01*
X0209301Y0143918D01*
X0209175Y0144003D01*
X0209051Y0144091D01*
X0208930Y0144182D01*
X0208811Y0144276D01*
X0208695Y0144374D01*
X0208581Y0144474D01*
X0208469Y0144576D01*
X0208361Y0144682D01*
X0208255Y0144790D01*
X0208151Y0144901D01*
X0208051Y0145015D01*
X0207953Y0145131D01*
X0207859Y0145250D01*
X0212595Y0142933D02*
X0212747Y0142935D01*
X0212898Y0142941D01*
X0213049Y0142950D01*
X0213201Y0142964D01*
X0213351Y0142981D01*
X0213501Y0143002D01*
X0213651Y0143027D01*
X0213800Y0143055D01*
X0213948Y0143088D01*
X0214095Y0143124D01*
X0214242Y0143163D01*
X0214387Y0143207D01*
X0214531Y0143254D01*
X0214674Y0143305D01*
X0214815Y0143359D01*
X0214956Y0143417D01*
X0215094Y0143478D01*
X0215231Y0143543D01*
X0215367Y0143612D01*
X0215500Y0143683D01*
X0215632Y0143758D01*
X0215762Y0143837D01*
X0215889Y0143918D01*
X0216015Y0144003D01*
X0216139Y0144091D01*
X0216260Y0144182D01*
X0216379Y0144276D01*
X0216495Y0144374D01*
X0216609Y0144474D01*
X0216721Y0144576D01*
X0216829Y0144682D01*
X0216935Y0144790D01*
X0217039Y0144901D01*
X0217139Y0145015D01*
X0217237Y0145131D01*
X0217331Y0145250D01*
X0212595Y0154933D02*
X0212445Y0154931D01*
X0212294Y0154925D01*
X0212144Y0154916D01*
X0211995Y0154903D01*
X0211845Y0154886D01*
X0211696Y0154865D01*
X0211548Y0154841D01*
X0211400Y0154813D01*
X0211253Y0154781D01*
X0211107Y0154746D01*
X0210962Y0154706D01*
X0210818Y0154664D01*
X0210675Y0154617D01*
X0210533Y0154567D01*
X0210392Y0154514D01*
X0210253Y0154457D01*
X0210115Y0154397D01*
X0209979Y0154333D01*
X0209845Y0154266D01*
X0209712Y0154195D01*
X0209581Y0154121D01*
X0209452Y0154044D01*
X0209325Y0153963D01*
X0209200Y0153880D01*
X0209077Y0153793D01*
X0208956Y0153704D01*
X0208838Y0153611D01*
X0208722Y0153515D01*
X0208608Y0153417D01*
X0208497Y0153316D01*
X0208388Y0153211D01*
X0208283Y0153105D01*
X0208179Y0152995D01*
X0208079Y0152883D01*
X0207981Y0152769D01*
X0207887Y0152652D01*
X0207795Y0152533D01*
X0232595Y0154933D02*
X0232749Y0154931D01*
X0232903Y0154925D01*
X0233057Y0154915D01*
X0233211Y0154901D01*
X0233364Y0154884D01*
X0233516Y0154862D01*
X0233668Y0154836D01*
X0233820Y0154807D01*
X0233970Y0154773D01*
X0234120Y0154736D01*
X0234268Y0154695D01*
X0234416Y0154650D01*
X0234562Y0154601D01*
X0234707Y0154549D01*
X0234850Y0154493D01*
X0234993Y0154433D01*
X0235133Y0154370D01*
X0235272Y0154303D01*
X0235409Y0154232D01*
X0235544Y0154158D01*
X0235677Y0154081D01*
X0235809Y0154000D01*
X0235938Y0153916D01*
X0236065Y0153828D01*
X0236189Y0153737D01*
X0236311Y0153644D01*
X0236431Y0153546D01*
X0236548Y0153446D01*
X0236663Y0153343D01*
X0236775Y0153237D01*
X0236884Y0153129D01*
X0236990Y0153017D01*
X0237094Y0152903D01*
X0237194Y0152786D01*
X0237292Y0152667D01*
X0237386Y0152545D01*
X0237477Y0152420D01*
X0232595Y0142933D02*
X0232443Y0142935D01*
X0232292Y0142941D01*
X0232141Y0142950D01*
X0231989Y0142964D01*
X0231839Y0142981D01*
X0231689Y0143002D01*
X0231539Y0143027D01*
X0231390Y0143055D01*
X0231242Y0143088D01*
X0231095Y0143124D01*
X0230948Y0143163D01*
X0230803Y0143207D01*
X0230659Y0143254D01*
X0230516Y0143305D01*
X0230375Y0143359D01*
X0230234Y0143417D01*
X0230096Y0143478D01*
X0229959Y0143543D01*
X0229823Y0143612D01*
X0229690Y0143683D01*
X0229558Y0143758D01*
X0229428Y0143837D01*
X0229301Y0143918D01*
X0229175Y0144003D01*
X0229051Y0144091D01*
X0228930Y0144182D01*
X0228811Y0144276D01*
X0228695Y0144374D01*
X0228581Y0144474D01*
X0228469Y0144576D01*
X0228361Y0144682D01*
X0228255Y0144790D01*
X0228151Y0144901D01*
X0228051Y0145015D01*
X0227953Y0145131D01*
X0227859Y0145250D01*
X0232595Y0142933D02*
X0232747Y0142935D01*
X0232898Y0142941D01*
X0233049Y0142950D01*
X0233201Y0142964D01*
X0233351Y0142981D01*
X0233501Y0143002D01*
X0233651Y0143027D01*
X0233800Y0143055D01*
X0233948Y0143088D01*
X0234095Y0143124D01*
X0234242Y0143163D01*
X0234387Y0143207D01*
X0234531Y0143254D01*
X0234674Y0143305D01*
X0234815Y0143359D01*
X0234956Y0143417D01*
X0235094Y0143478D01*
X0235231Y0143543D01*
X0235367Y0143612D01*
X0235500Y0143683D01*
X0235632Y0143758D01*
X0235762Y0143837D01*
X0235889Y0143918D01*
X0236015Y0144003D01*
X0236139Y0144091D01*
X0236260Y0144182D01*
X0236379Y0144276D01*
X0236495Y0144374D01*
X0236609Y0144474D01*
X0236721Y0144576D01*
X0236829Y0144682D01*
X0236935Y0144790D01*
X0237039Y0144901D01*
X0237139Y0145015D01*
X0237237Y0145131D01*
X0237331Y0145250D01*
X0232595Y0154933D02*
X0232445Y0154931D01*
X0232294Y0154925D01*
X0232144Y0154916D01*
X0231995Y0154903D01*
X0231845Y0154886D01*
X0231696Y0154865D01*
X0231548Y0154841D01*
X0231400Y0154813D01*
X0231253Y0154781D01*
X0231107Y0154746D01*
X0230962Y0154706D01*
X0230818Y0154664D01*
X0230675Y0154617D01*
X0230533Y0154567D01*
X0230392Y0154514D01*
X0230253Y0154457D01*
X0230115Y0154397D01*
X0229979Y0154333D01*
X0229845Y0154266D01*
X0229712Y0154195D01*
X0229581Y0154121D01*
X0229452Y0154044D01*
X0229325Y0153963D01*
X0229200Y0153880D01*
X0229077Y0153793D01*
X0228956Y0153704D01*
X0228838Y0153611D01*
X0228722Y0153515D01*
X0228608Y0153417D01*
X0228497Y0153316D01*
X0228388Y0153211D01*
X0228283Y0153105D01*
X0228179Y0152995D01*
X0228079Y0152883D01*
X0227981Y0152769D01*
X0227887Y0152652D01*
X0227795Y0152533D01*
X0230095Y0123933D02*
X0227595Y0121433D01*
X0227595Y0116433D01*
X0230095Y0113933D01*
X0227595Y0111433D01*
X0227595Y0106433D01*
X0230095Y0103933D01*
X0227595Y0101433D01*
X0227595Y0096433D01*
X0230095Y0093933D01*
X0227595Y0091433D01*
X0227595Y0086433D01*
X0230095Y0083933D01*
X0227595Y0081433D01*
X0227595Y0076433D01*
X0230095Y0073933D01*
X0227595Y0071433D01*
X0227595Y0066433D01*
X0230095Y0063933D01*
X0235095Y0063933D01*
X0237595Y0066433D01*
X0237595Y0071433D01*
X0235095Y0073933D01*
X0237595Y0076433D01*
X0237595Y0081433D01*
X0235095Y0083933D01*
X0237595Y0086433D01*
X0237595Y0091433D01*
X0235095Y0093933D01*
X0237595Y0096433D01*
X0237595Y0101433D01*
X0235095Y0103933D01*
X0237595Y0106433D01*
X0237595Y0111433D01*
X0235095Y0113933D01*
X0237595Y0116433D01*
X0237595Y0121433D01*
X0235095Y0123933D01*
X0230095Y0123933D01*
X0180595Y0050933D02*
X0180595Y0048933D01*
X0179595Y0049933D02*
X0181595Y0049933D01*
X0184095Y0049933D02*
X0186095Y0049933D01*
X0174095Y0043933D02*
X0174098Y0044142D01*
X0174105Y0044350D01*
X0174118Y0044558D01*
X0174136Y0044766D01*
X0174159Y0044973D01*
X0174187Y0045180D01*
X0174220Y0045386D01*
X0174258Y0045591D01*
X0174302Y0045795D01*
X0174350Y0045998D01*
X0174403Y0046200D01*
X0174461Y0046400D01*
X0174524Y0046599D01*
X0174592Y0046797D01*
X0174665Y0046992D01*
X0174742Y0047186D01*
X0174824Y0047378D01*
X0174911Y0047567D01*
X0175003Y0047755D01*
X0175099Y0047940D01*
X0175199Y0048123D01*
X0175304Y0048303D01*
X0175414Y0048480D01*
X0175528Y0048655D01*
X0175646Y0048827D01*
X0175768Y0048996D01*
X0175894Y0049162D01*
X0176024Y0049325D01*
X0176159Y0049485D01*
X0176297Y0049641D01*
X0176439Y0049794D01*
X0176585Y0049943D01*
X0176734Y0050089D01*
X0176887Y0050231D01*
X0177043Y0050369D01*
X0177203Y0050504D01*
X0177366Y0050634D01*
X0177532Y0050760D01*
X0177701Y0050882D01*
X0177873Y0051000D01*
X0178048Y0051114D01*
X0178225Y0051224D01*
X0178405Y0051329D01*
X0178588Y0051429D01*
X0178773Y0051525D01*
X0178961Y0051617D01*
X0179150Y0051704D01*
X0179342Y0051786D01*
X0179536Y0051863D01*
X0179731Y0051936D01*
X0179929Y0052004D01*
X0180128Y0052067D01*
X0180328Y0052125D01*
X0180530Y0052178D01*
X0180733Y0052226D01*
X0180937Y0052270D01*
X0181142Y0052308D01*
X0181348Y0052341D01*
X0181555Y0052369D01*
X0181762Y0052392D01*
X0181970Y0052410D01*
X0182178Y0052423D01*
X0182386Y0052430D01*
X0182595Y0052433D01*
X0182804Y0052430D01*
X0183012Y0052423D01*
X0183220Y0052410D01*
X0183428Y0052392D01*
X0183635Y0052369D01*
X0183842Y0052341D01*
X0184048Y0052308D01*
X0184253Y0052270D01*
X0184457Y0052226D01*
X0184660Y0052178D01*
X0184862Y0052125D01*
X0185062Y0052067D01*
X0185261Y0052004D01*
X0185459Y0051936D01*
X0185654Y0051863D01*
X0185848Y0051786D01*
X0186040Y0051704D01*
X0186229Y0051617D01*
X0186417Y0051525D01*
X0186602Y0051429D01*
X0186785Y0051329D01*
X0186965Y0051224D01*
X0187142Y0051114D01*
X0187317Y0051000D01*
X0187489Y0050882D01*
X0187658Y0050760D01*
X0187824Y0050634D01*
X0187987Y0050504D01*
X0188147Y0050369D01*
X0188303Y0050231D01*
X0188456Y0050089D01*
X0188605Y0049943D01*
X0188751Y0049794D01*
X0188893Y0049641D01*
X0189031Y0049485D01*
X0189166Y0049325D01*
X0189296Y0049162D01*
X0189422Y0048996D01*
X0189544Y0048827D01*
X0189662Y0048655D01*
X0189776Y0048480D01*
X0189886Y0048303D01*
X0189991Y0048123D01*
X0190091Y0047940D01*
X0190187Y0047755D01*
X0190279Y0047567D01*
X0190366Y0047378D01*
X0190448Y0047186D01*
X0190525Y0046992D01*
X0190598Y0046797D01*
X0190666Y0046599D01*
X0190729Y0046400D01*
X0190787Y0046200D01*
X0190840Y0045998D01*
X0190888Y0045795D01*
X0190932Y0045591D01*
X0190970Y0045386D01*
X0191003Y0045180D01*
X0191031Y0044973D01*
X0191054Y0044766D01*
X0191072Y0044558D01*
X0191085Y0044350D01*
X0191092Y0044142D01*
X0191095Y0043933D01*
X0191092Y0043724D01*
X0191085Y0043516D01*
X0191072Y0043308D01*
X0191054Y0043100D01*
X0191031Y0042893D01*
X0191003Y0042686D01*
X0190970Y0042480D01*
X0190932Y0042275D01*
X0190888Y0042071D01*
X0190840Y0041868D01*
X0190787Y0041666D01*
X0190729Y0041466D01*
X0190666Y0041267D01*
X0190598Y0041069D01*
X0190525Y0040874D01*
X0190448Y0040680D01*
X0190366Y0040488D01*
X0190279Y0040299D01*
X0190187Y0040111D01*
X0190091Y0039926D01*
X0189991Y0039743D01*
X0189886Y0039563D01*
X0189776Y0039386D01*
X0189662Y0039211D01*
X0189544Y0039039D01*
X0189422Y0038870D01*
X0189296Y0038704D01*
X0189166Y0038541D01*
X0189031Y0038381D01*
X0188893Y0038225D01*
X0188751Y0038072D01*
X0188605Y0037923D01*
X0188456Y0037777D01*
X0188303Y0037635D01*
X0188147Y0037497D01*
X0187987Y0037362D01*
X0187824Y0037232D01*
X0187658Y0037106D01*
X0187489Y0036984D01*
X0187317Y0036866D01*
X0187142Y0036752D01*
X0186965Y0036642D01*
X0186785Y0036537D01*
X0186602Y0036437D01*
X0186417Y0036341D01*
X0186229Y0036249D01*
X0186040Y0036162D01*
X0185848Y0036080D01*
X0185654Y0036003D01*
X0185459Y0035930D01*
X0185261Y0035862D01*
X0185062Y0035799D01*
X0184862Y0035741D01*
X0184660Y0035688D01*
X0184457Y0035640D01*
X0184253Y0035596D01*
X0184048Y0035558D01*
X0183842Y0035525D01*
X0183635Y0035497D01*
X0183428Y0035474D01*
X0183220Y0035456D01*
X0183012Y0035443D01*
X0182804Y0035436D01*
X0182595Y0035433D01*
X0182386Y0035436D01*
X0182178Y0035443D01*
X0181970Y0035456D01*
X0181762Y0035474D01*
X0181555Y0035497D01*
X0181348Y0035525D01*
X0181142Y0035558D01*
X0180937Y0035596D01*
X0180733Y0035640D01*
X0180530Y0035688D01*
X0180328Y0035741D01*
X0180128Y0035799D01*
X0179929Y0035862D01*
X0179731Y0035930D01*
X0179536Y0036003D01*
X0179342Y0036080D01*
X0179150Y0036162D01*
X0178961Y0036249D01*
X0178773Y0036341D01*
X0178588Y0036437D01*
X0178405Y0036537D01*
X0178225Y0036642D01*
X0178048Y0036752D01*
X0177873Y0036866D01*
X0177701Y0036984D01*
X0177532Y0037106D01*
X0177366Y0037232D01*
X0177203Y0037362D01*
X0177043Y0037497D01*
X0176887Y0037635D01*
X0176734Y0037777D01*
X0176585Y0037923D01*
X0176439Y0038072D01*
X0176297Y0038225D01*
X0176159Y0038381D01*
X0176024Y0038541D01*
X0175894Y0038704D01*
X0175768Y0038870D01*
X0175646Y0039039D01*
X0175528Y0039211D01*
X0175414Y0039386D01*
X0175304Y0039563D01*
X0175199Y0039743D01*
X0175099Y0039926D01*
X0175003Y0040111D01*
X0174911Y0040299D01*
X0174824Y0040488D01*
X0174742Y0040680D01*
X0174665Y0040874D01*
X0174592Y0041069D01*
X0174524Y0041267D01*
X0174461Y0041466D01*
X0174403Y0041666D01*
X0174350Y0041868D01*
X0174302Y0042071D01*
X0174258Y0042275D01*
X0174220Y0042480D01*
X0174187Y0042686D01*
X0174159Y0042893D01*
X0174136Y0043100D01*
X0174118Y0043308D01*
X0174105Y0043516D01*
X0174098Y0043724D01*
X0174095Y0043933D01*
X0166095Y0049933D02*
X0164095Y0049933D01*
X0161595Y0049933D02*
X0159595Y0049933D01*
X0160595Y0048933D02*
X0160595Y0050933D01*
X0154095Y0043933D02*
X0154098Y0044142D01*
X0154105Y0044350D01*
X0154118Y0044558D01*
X0154136Y0044766D01*
X0154159Y0044973D01*
X0154187Y0045180D01*
X0154220Y0045386D01*
X0154258Y0045591D01*
X0154302Y0045795D01*
X0154350Y0045998D01*
X0154403Y0046200D01*
X0154461Y0046400D01*
X0154524Y0046599D01*
X0154592Y0046797D01*
X0154665Y0046992D01*
X0154742Y0047186D01*
X0154824Y0047378D01*
X0154911Y0047567D01*
X0155003Y0047755D01*
X0155099Y0047940D01*
X0155199Y0048123D01*
X0155304Y0048303D01*
X0155414Y0048480D01*
X0155528Y0048655D01*
X0155646Y0048827D01*
X0155768Y0048996D01*
X0155894Y0049162D01*
X0156024Y0049325D01*
X0156159Y0049485D01*
X0156297Y0049641D01*
X0156439Y0049794D01*
X0156585Y0049943D01*
X0156734Y0050089D01*
X0156887Y0050231D01*
X0157043Y0050369D01*
X0157203Y0050504D01*
X0157366Y0050634D01*
X0157532Y0050760D01*
X0157701Y0050882D01*
X0157873Y0051000D01*
X0158048Y0051114D01*
X0158225Y0051224D01*
X0158405Y0051329D01*
X0158588Y0051429D01*
X0158773Y0051525D01*
X0158961Y0051617D01*
X0159150Y0051704D01*
X0159342Y0051786D01*
X0159536Y0051863D01*
X0159731Y0051936D01*
X0159929Y0052004D01*
X0160128Y0052067D01*
X0160328Y0052125D01*
X0160530Y0052178D01*
X0160733Y0052226D01*
X0160937Y0052270D01*
X0161142Y0052308D01*
X0161348Y0052341D01*
X0161555Y0052369D01*
X0161762Y0052392D01*
X0161970Y0052410D01*
X0162178Y0052423D01*
X0162386Y0052430D01*
X0162595Y0052433D01*
X0162804Y0052430D01*
X0163012Y0052423D01*
X0163220Y0052410D01*
X0163428Y0052392D01*
X0163635Y0052369D01*
X0163842Y0052341D01*
X0164048Y0052308D01*
X0164253Y0052270D01*
X0164457Y0052226D01*
X0164660Y0052178D01*
X0164862Y0052125D01*
X0165062Y0052067D01*
X0165261Y0052004D01*
X0165459Y0051936D01*
X0165654Y0051863D01*
X0165848Y0051786D01*
X0166040Y0051704D01*
X0166229Y0051617D01*
X0166417Y0051525D01*
X0166602Y0051429D01*
X0166785Y0051329D01*
X0166965Y0051224D01*
X0167142Y0051114D01*
X0167317Y0051000D01*
X0167489Y0050882D01*
X0167658Y0050760D01*
X0167824Y0050634D01*
X0167987Y0050504D01*
X0168147Y0050369D01*
X0168303Y0050231D01*
X0168456Y0050089D01*
X0168605Y0049943D01*
X0168751Y0049794D01*
X0168893Y0049641D01*
X0169031Y0049485D01*
X0169166Y0049325D01*
X0169296Y0049162D01*
X0169422Y0048996D01*
X0169544Y0048827D01*
X0169662Y0048655D01*
X0169776Y0048480D01*
X0169886Y0048303D01*
X0169991Y0048123D01*
X0170091Y0047940D01*
X0170187Y0047755D01*
X0170279Y0047567D01*
X0170366Y0047378D01*
X0170448Y0047186D01*
X0170525Y0046992D01*
X0170598Y0046797D01*
X0170666Y0046599D01*
X0170729Y0046400D01*
X0170787Y0046200D01*
X0170840Y0045998D01*
X0170888Y0045795D01*
X0170932Y0045591D01*
X0170970Y0045386D01*
X0171003Y0045180D01*
X0171031Y0044973D01*
X0171054Y0044766D01*
X0171072Y0044558D01*
X0171085Y0044350D01*
X0171092Y0044142D01*
X0171095Y0043933D01*
X0171092Y0043724D01*
X0171085Y0043516D01*
X0171072Y0043308D01*
X0171054Y0043100D01*
X0171031Y0042893D01*
X0171003Y0042686D01*
X0170970Y0042480D01*
X0170932Y0042275D01*
X0170888Y0042071D01*
X0170840Y0041868D01*
X0170787Y0041666D01*
X0170729Y0041466D01*
X0170666Y0041267D01*
X0170598Y0041069D01*
X0170525Y0040874D01*
X0170448Y0040680D01*
X0170366Y0040488D01*
X0170279Y0040299D01*
X0170187Y0040111D01*
X0170091Y0039926D01*
X0169991Y0039743D01*
X0169886Y0039563D01*
X0169776Y0039386D01*
X0169662Y0039211D01*
X0169544Y0039039D01*
X0169422Y0038870D01*
X0169296Y0038704D01*
X0169166Y0038541D01*
X0169031Y0038381D01*
X0168893Y0038225D01*
X0168751Y0038072D01*
X0168605Y0037923D01*
X0168456Y0037777D01*
X0168303Y0037635D01*
X0168147Y0037497D01*
X0167987Y0037362D01*
X0167824Y0037232D01*
X0167658Y0037106D01*
X0167489Y0036984D01*
X0167317Y0036866D01*
X0167142Y0036752D01*
X0166965Y0036642D01*
X0166785Y0036537D01*
X0166602Y0036437D01*
X0166417Y0036341D01*
X0166229Y0036249D01*
X0166040Y0036162D01*
X0165848Y0036080D01*
X0165654Y0036003D01*
X0165459Y0035930D01*
X0165261Y0035862D01*
X0165062Y0035799D01*
X0164862Y0035741D01*
X0164660Y0035688D01*
X0164457Y0035640D01*
X0164253Y0035596D01*
X0164048Y0035558D01*
X0163842Y0035525D01*
X0163635Y0035497D01*
X0163428Y0035474D01*
X0163220Y0035456D01*
X0163012Y0035443D01*
X0162804Y0035436D01*
X0162595Y0035433D01*
X0162386Y0035436D01*
X0162178Y0035443D01*
X0161970Y0035456D01*
X0161762Y0035474D01*
X0161555Y0035497D01*
X0161348Y0035525D01*
X0161142Y0035558D01*
X0160937Y0035596D01*
X0160733Y0035640D01*
X0160530Y0035688D01*
X0160328Y0035741D01*
X0160128Y0035799D01*
X0159929Y0035862D01*
X0159731Y0035930D01*
X0159536Y0036003D01*
X0159342Y0036080D01*
X0159150Y0036162D01*
X0158961Y0036249D01*
X0158773Y0036341D01*
X0158588Y0036437D01*
X0158405Y0036537D01*
X0158225Y0036642D01*
X0158048Y0036752D01*
X0157873Y0036866D01*
X0157701Y0036984D01*
X0157532Y0037106D01*
X0157366Y0037232D01*
X0157203Y0037362D01*
X0157043Y0037497D01*
X0156887Y0037635D01*
X0156734Y0037777D01*
X0156585Y0037923D01*
X0156439Y0038072D01*
X0156297Y0038225D01*
X0156159Y0038381D01*
X0156024Y0038541D01*
X0155894Y0038704D01*
X0155768Y0038870D01*
X0155646Y0039039D01*
X0155528Y0039211D01*
X0155414Y0039386D01*
X0155304Y0039563D01*
X0155199Y0039743D01*
X0155099Y0039926D01*
X0155003Y0040111D01*
X0154911Y0040299D01*
X0154824Y0040488D01*
X0154742Y0040680D01*
X0154665Y0040874D01*
X0154592Y0041069D01*
X0154524Y0041267D01*
X0154461Y0041466D01*
X0154403Y0041666D01*
X0154350Y0041868D01*
X0154302Y0042071D01*
X0154258Y0042275D01*
X0154220Y0042480D01*
X0154187Y0042686D01*
X0154159Y0042893D01*
X0154136Y0043100D01*
X0154118Y0043308D01*
X0154105Y0043516D01*
X0154098Y0043724D01*
X0154095Y0043933D01*
X0146095Y0049933D02*
X0144095Y0049933D01*
X0141595Y0049933D02*
X0139595Y0049933D01*
X0140595Y0048933D02*
X0140595Y0050933D01*
X0134095Y0043933D02*
X0134098Y0044142D01*
X0134105Y0044350D01*
X0134118Y0044558D01*
X0134136Y0044766D01*
X0134159Y0044973D01*
X0134187Y0045180D01*
X0134220Y0045386D01*
X0134258Y0045591D01*
X0134302Y0045795D01*
X0134350Y0045998D01*
X0134403Y0046200D01*
X0134461Y0046400D01*
X0134524Y0046599D01*
X0134592Y0046797D01*
X0134665Y0046992D01*
X0134742Y0047186D01*
X0134824Y0047378D01*
X0134911Y0047567D01*
X0135003Y0047755D01*
X0135099Y0047940D01*
X0135199Y0048123D01*
X0135304Y0048303D01*
X0135414Y0048480D01*
X0135528Y0048655D01*
X0135646Y0048827D01*
X0135768Y0048996D01*
X0135894Y0049162D01*
X0136024Y0049325D01*
X0136159Y0049485D01*
X0136297Y0049641D01*
X0136439Y0049794D01*
X0136585Y0049943D01*
X0136734Y0050089D01*
X0136887Y0050231D01*
X0137043Y0050369D01*
X0137203Y0050504D01*
X0137366Y0050634D01*
X0137532Y0050760D01*
X0137701Y0050882D01*
X0137873Y0051000D01*
X0138048Y0051114D01*
X0138225Y0051224D01*
X0138405Y0051329D01*
X0138588Y0051429D01*
X0138773Y0051525D01*
X0138961Y0051617D01*
X0139150Y0051704D01*
X0139342Y0051786D01*
X0139536Y0051863D01*
X0139731Y0051936D01*
X0139929Y0052004D01*
X0140128Y0052067D01*
X0140328Y0052125D01*
X0140530Y0052178D01*
X0140733Y0052226D01*
X0140937Y0052270D01*
X0141142Y0052308D01*
X0141348Y0052341D01*
X0141555Y0052369D01*
X0141762Y0052392D01*
X0141970Y0052410D01*
X0142178Y0052423D01*
X0142386Y0052430D01*
X0142595Y0052433D01*
X0142804Y0052430D01*
X0143012Y0052423D01*
X0143220Y0052410D01*
X0143428Y0052392D01*
X0143635Y0052369D01*
X0143842Y0052341D01*
X0144048Y0052308D01*
X0144253Y0052270D01*
X0144457Y0052226D01*
X0144660Y0052178D01*
X0144862Y0052125D01*
X0145062Y0052067D01*
X0145261Y0052004D01*
X0145459Y0051936D01*
X0145654Y0051863D01*
X0145848Y0051786D01*
X0146040Y0051704D01*
X0146229Y0051617D01*
X0146417Y0051525D01*
X0146602Y0051429D01*
X0146785Y0051329D01*
X0146965Y0051224D01*
X0147142Y0051114D01*
X0147317Y0051000D01*
X0147489Y0050882D01*
X0147658Y0050760D01*
X0147824Y0050634D01*
X0147987Y0050504D01*
X0148147Y0050369D01*
X0148303Y0050231D01*
X0148456Y0050089D01*
X0148605Y0049943D01*
X0148751Y0049794D01*
X0148893Y0049641D01*
X0149031Y0049485D01*
X0149166Y0049325D01*
X0149296Y0049162D01*
X0149422Y0048996D01*
X0149544Y0048827D01*
X0149662Y0048655D01*
X0149776Y0048480D01*
X0149886Y0048303D01*
X0149991Y0048123D01*
X0150091Y0047940D01*
X0150187Y0047755D01*
X0150279Y0047567D01*
X0150366Y0047378D01*
X0150448Y0047186D01*
X0150525Y0046992D01*
X0150598Y0046797D01*
X0150666Y0046599D01*
X0150729Y0046400D01*
X0150787Y0046200D01*
X0150840Y0045998D01*
X0150888Y0045795D01*
X0150932Y0045591D01*
X0150970Y0045386D01*
X0151003Y0045180D01*
X0151031Y0044973D01*
X0151054Y0044766D01*
X0151072Y0044558D01*
X0151085Y0044350D01*
X0151092Y0044142D01*
X0151095Y0043933D01*
X0151092Y0043724D01*
X0151085Y0043516D01*
X0151072Y0043308D01*
X0151054Y0043100D01*
X0151031Y0042893D01*
X0151003Y0042686D01*
X0150970Y0042480D01*
X0150932Y0042275D01*
X0150888Y0042071D01*
X0150840Y0041868D01*
X0150787Y0041666D01*
X0150729Y0041466D01*
X0150666Y0041267D01*
X0150598Y0041069D01*
X0150525Y0040874D01*
X0150448Y0040680D01*
X0150366Y0040488D01*
X0150279Y0040299D01*
X0150187Y0040111D01*
X0150091Y0039926D01*
X0149991Y0039743D01*
X0149886Y0039563D01*
X0149776Y0039386D01*
X0149662Y0039211D01*
X0149544Y0039039D01*
X0149422Y0038870D01*
X0149296Y0038704D01*
X0149166Y0038541D01*
X0149031Y0038381D01*
X0148893Y0038225D01*
X0148751Y0038072D01*
X0148605Y0037923D01*
X0148456Y0037777D01*
X0148303Y0037635D01*
X0148147Y0037497D01*
X0147987Y0037362D01*
X0147824Y0037232D01*
X0147658Y0037106D01*
X0147489Y0036984D01*
X0147317Y0036866D01*
X0147142Y0036752D01*
X0146965Y0036642D01*
X0146785Y0036537D01*
X0146602Y0036437D01*
X0146417Y0036341D01*
X0146229Y0036249D01*
X0146040Y0036162D01*
X0145848Y0036080D01*
X0145654Y0036003D01*
X0145459Y0035930D01*
X0145261Y0035862D01*
X0145062Y0035799D01*
X0144862Y0035741D01*
X0144660Y0035688D01*
X0144457Y0035640D01*
X0144253Y0035596D01*
X0144048Y0035558D01*
X0143842Y0035525D01*
X0143635Y0035497D01*
X0143428Y0035474D01*
X0143220Y0035456D01*
X0143012Y0035443D01*
X0142804Y0035436D01*
X0142595Y0035433D01*
X0142386Y0035436D01*
X0142178Y0035443D01*
X0141970Y0035456D01*
X0141762Y0035474D01*
X0141555Y0035497D01*
X0141348Y0035525D01*
X0141142Y0035558D01*
X0140937Y0035596D01*
X0140733Y0035640D01*
X0140530Y0035688D01*
X0140328Y0035741D01*
X0140128Y0035799D01*
X0139929Y0035862D01*
X0139731Y0035930D01*
X0139536Y0036003D01*
X0139342Y0036080D01*
X0139150Y0036162D01*
X0138961Y0036249D01*
X0138773Y0036341D01*
X0138588Y0036437D01*
X0138405Y0036537D01*
X0138225Y0036642D01*
X0138048Y0036752D01*
X0137873Y0036866D01*
X0137701Y0036984D01*
X0137532Y0037106D01*
X0137366Y0037232D01*
X0137203Y0037362D01*
X0137043Y0037497D01*
X0136887Y0037635D01*
X0136734Y0037777D01*
X0136585Y0037923D01*
X0136439Y0038072D01*
X0136297Y0038225D01*
X0136159Y0038381D01*
X0136024Y0038541D01*
X0135894Y0038704D01*
X0135768Y0038870D01*
X0135646Y0039039D01*
X0135528Y0039211D01*
X0135414Y0039386D01*
X0135304Y0039563D01*
X0135199Y0039743D01*
X0135099Y0039926D01*
X0135003Y0040111D01*
X0134911Y0040299D01*
X0134824Y0040488D01*
X0134742Y0040680D01*
X0134665Y0040874D01*
X0134592Y0041069D01*
X0134524Y0041267D01*
X0134461Y0041466D01*
X0134403Y0041666D01*
X0134350Y0041868D01*
X0134302Y0042071D01*
X0134258Y0042275D01*
X0134220Y0042480D01*
X0134187Y0042686D01*
X0134159Y0042893D01*
X0134136Y0043100D01*
X0134118Y0043308D01*
X0134105Y0043516D01*
X0134098Y0043724D01*
X0134095Y0043933D01*
X0126095Y0049933D02*
X0124095Y0049933D01*
X0121595Y0049933D02*
X0119595Y0049933D01*
X0120595Y0048933D02*
X0120595Y0050933D01*
X0114095Y0043933D02*
X0114098Y0044142D01*
X0114105Y0044350D01*
X0114118Y0044558D01*
X0114136Y0044766D01*
X0114159Y0044973D01*
X0114187Y0045180D01*
X0114220Y0045386D01*
X0114258Y0045591D01*
X0114302Y0045795D01*
X0114350Y0045998D01*
X0114403Y0046200D01*
X0114461Y0046400D01*
X0114524Y0046599D01*
X0114592Y0046797D01*
X0114665Y0046992D01*
X0114742Y0047186D01*
X0114824Y0047378D01*
X0114911Y0047567D01*
X0115003Y0047755D01*
X0115099Y0047940D01*
X0115199Y0048123D01*
X0115304Y0048303D01*
X0115414Y0048480D01*
X0115528Y0048655D01*
X0115646Y0048827D01*
X0115768Y0048996D01*
X0115894Y0049162D01*
X0116024Y0049325D01*
X0116159Y0049485D01*
X0116297Y0049641D01*
X0116439Y0049794D01*
X0116585Y0049943D01*
X0116734Y0050089D01*
X0116887Y0050231D01*
X0117043Y0050369D01*
X0117203Y0050504D01*
X0117366Y0050634D01*
X0117532Y0050760D01*
X0117701Y0050882D01*
X0117873Y0051000D01*
X0118048Y0051114D01*
X0118225Y0051224D01*
X0118405Y0051329D01*
X0118588Y0051429D01*
X0118773Y0051525D01*
X0118961Y0051617D01*
X0119150Y0051704D01*
X0119342Y0051786D01*
X0119536Y0051863D01*
X0119731Y0051936D01*
X0119929Y0052004D01*
X0120128Y0052067D01*
X0120328Y0052125D01*
X0120530Y0052178D01*
X0120733Y0052226D01*
X0120937Y0052270D01*
X0121142Y0052308D01*
X0121348Y0052341D01*
X0121555Y0052369D01*
X0121762Y0052392D01*
X0121970Y0052410D01*
X0122178Y0052423D01*
X0122386Y0052430D01*
X0122595Y0052433D01*
X0122804Y0052430D01*
X0123012Y0052423D01*
X0123220Y0052410D01*
X0123428Y0052392D01*
X0123635Y0052369D01*
X0123842Y0052341D01*
X0124048Y0052308D01*
X0124253Y0052270D01*
X0124457Y0052226D01*
X0124660Y0052178D01*
X0124862Y0052125D01*
X0125062Y0052067D01*
X0125261Y0052004D01*
X0125459Y0051936D01*
X0125654Y0051863D01*
X0125848Y0051786D01*
X0126040Y0051704D01*
X0126229Y0051617D01*
X0126417Y0051525D01*
X0126602Y0051429D01*
X0126785Y0051329D01*
X0126965Y0051224D01*
X0127142Y0051114D01*
X0127317Y0051000D01*
X0127489Y0050882D01*
X0127658Y0050760D01*
X0127824Y0050634D01*
X0127987Y0050504D01*
X0128147Y0050369D01*
X0128303Y0050231D01*
X0128456Y0050089D01*
X0128605Y0049943D01*
X0128751Y0049794D01*
X0128893Y0049641D01*
X0129031Y0049485D01*
X0129166Y0049325D01*
X0129296Y0049162D01*
X0129422Y0048996D01*
X0129544Y0048827D01*
X0129662Y0048655D01*
X0129776Y0048480D01*
X0129886Y0048303D01*
X0129991Y0048123D01*
X0130091Y0047940D01*
X0130187Y0047755D01*
X0130279Y0047567D01*
X0130366Y0047378D01*
X0130448Y0047186D01*
X0130525Y0046992D01*
X0130598Y0046797D01*
X0130666Y0046599D01*
X0130729Y0046400D01*
X0130787Y0046200D01*
X0130840Y0045998D01*
X0130888Y0045795D01*
X0130932Y0045591D01*
X0130970Y0045386D01*
X0131003Y0045180D01*
X0131031Y0044973D01*
X0131054Y0044766D01*
X0131072Y0044558D01*
X0131085Y0044350D01*
X0131092Y0044142D01*
X0131095Y0043933D01*
X0131092Y0043724D01*
X0131085Y0043516D01*
X0131072Y0043308D01*
X0131054Y0043100D01*
X0131031Y0042893D01*
X0131003Y0042686D01*
X0130970Y0042480D01*
X0130932Y0042275D01*
X0130888Y0042071D01*
X0130840Y0041868D01*
X0130787Y0041666D01*
X0130729Y0041466D01*
X0130666Y0041267D01*
X0130598Y0041069D01*
X0130525Y0040874D01*
X0130448Y0040680D01*
X0130366Y0040488D01*
X0130279Y0040299D01*
X0130187Y0040111D01*
X0130091Y0039926D01*
X0129991Y0039743D01*
X0129886Y0039563D01*
X0129776Y0039386D01*
X0129662Y0039211D01*
X0129544Y0039039D01*
X0129422Y0038870D01*
X0129296Y0038704D01*
X0129166Y0038541D01*
X0129031Y0038381D01*
X0128893Y0038225D01*
X0128751Y0038072D01*
X0128605Y0037923D01*
X0128456Y0037777D01*
X0128303Y0037635D01*
X0128147Y0037497D01*
X0127987Y0037362D01*
X0127824Y0037232D01*
X0127658Y0037106D01*
X0127489Y0036984D01*
X0127317Y0036866D01*
X0127142Y0036752D01*
X0126965Y0036642D01*
X0126785Y0036537D01*
X0126602Y0036437D01*
X0126417Y0036341D01*
X0126229Y0036249D01*
X0126040Y0036162D01*
X0125848Y0036080D01*
X0125654Y0036003D01*
X0125459Y0035930D01*
X0125261Y0035862D01*
X0125062Y0035799D01*
X0124862Y0035741D01*
X0124660Y0035688D01*
X0124457Y0035640D01*
X0124253Y0035596D01*
X0124048Y0035558D01*
X0123842Y0035525D01*
X0123635Y0035497D01*
X0123428Y0035474D01*
X0123220Y0035456D01*
X0123012Y0035443D01*
X0122804Y0035436D01*
X0122595Y0035433D01*
X0122386Y0035436D01*
X0122178Y0035443D01*
X0121970Y0035456D01*
X0121762Y0035474D01*
X0121555Y0035497D01*
X0121348Y0035525D01*
X0121142Y0035558D01*
X0120937Y0035596D01*
X0120733Y0035640D01*
X0120530Y0035688D01*
X0120328Y0035741D01*
X0120128Y0035799D01*
X0119929Y0035862D01*
X0119731Y0035930D01*
X0119536Y0036003D01*
X0119342Y0036080D01*
X0119150Y0036162D01*
X0118961Y0036249D01*
X0118773Y0036341D01*
X0118588Y0036437D01*
X0118405Y0036537D01*
X0118225Y0036642D01*
X0118048Y0036752D01*
X0117873Y0036866D01*
X0117701Y0036984D01*
X0117532Y0037106D01*
X0117366Y0037232D01*
X0117203Y0037362D01*
X0117043Y0037497D01*
X0116887Y0037635D01*
X0116734Y0037777D01*
X0116585Y0037923D01*
X0116439Y0038072D01*
X0116297Y0038225D01*
X0116159Y0038381D01*
X0116024Y0038541D01*
X0115894Y0038704D01*
X0115768Y0038870D01*
X0115646Y0039039D01*
X0115528Y0039211D01*
X0115414Y0039386D01*
X0115304Y0039563D01*
X0115199Y0039743D01*
X0115099Y0039926D01*
X0115003Y0040111D01*
X0114911Y0040299D01*
X0114824Y0040488D01*
X0114742Y0040680D01*
X0114665Y0040874D01*
X0114592Y0041069D01*
X0114524Y0041267D01*
X0114461Y0041466D01*
X0114403Y0041666D01*
X0114350Y0041868D01*
X0114302Y0042071D01*
X0114258Y0042275D01*
X0114220Y0042480D01*
X0114187Y0042686D01*
X0114159Y0042893D01*
X0114136Y0043100D01*
X0114118Y0043308D01*
X0114105Y0043516D01*
X0114098Y0043724D01*
X0114095Y0043933D01*
X0091095Y0044633D02*
X0091097Y0044794D01*
X0091103Y0044954D01*
X0091113Y0045115D01*
X0091127Y0045275D01*
X0091145Y0045435D01*
X0091166Y0045594D01*
X0091192Y0045753D01*
X0091222Y0045911D01*
X0091255Y0046068D01*
X0091293Y0046225D01*
X0091334Y0046380D01*
X0091379Y0046534D01*
X0091428Y0046687D01*
X0091481Y0046839D01*
X0091537Y0046990D01*
X0091598Y0047139D01*
X0091661Y0047287D01*
X0091729Y0047433D01*
X0091800Y0047577D01*
X0091874Y0047719D01*
X0091952Y0047860D01*
X0092034Y0047998D01*
X0092119Y0048135D01*
X0092207Y0048269D01*
X0092299Y0048401D01*
X0092394Y0048531D01*
X0092492Y0048659D01*
X0092593Y0048784D01*
X0092697Y0048906D01*
X0092804Y0049026D01*
X0092914Y0049143D01*
X0093027Y0049258D01*
X0093143Y0049369D01*
X0093262Y0049478D01*
X0093383Y0049583D01*
X0093507Y0049686D01*
X0093633Y0049786D01*
X0093761Y0049882D01*
X0093892Y0049975D01*
X0094026Y0050065D01*
X0094161Y0050152D01*
X0094299Y0050235D01*
X0094438Y0050315D01*
X0094580Y0050391D01*
X0094723Y0050464D01*
X0094868Y0050533D01*
X0095015Y0050599D01*
X0095163Y0050661D01*
X0095313Y0050719D01*
X0095464Y0050774D01*
X0095617Y0050825D01*
X0095771Y0050872D01*
X0095926Y0050915D01*
X0096082Y0050954D01*
X0096238Y0050990D01*
X0096396Y0051021D01*
X0096554Y0051049D01*
X0096713Y0051073D01*
X0096873Y0051093D01*
X0097033Y0051109D01*
X0097193Y0051121D01*
X0097354Y0051129D01*
X0097515Y0051133D01*
X0097675Y0051133D01*
X0097836Y0051129D01*
X0097997Y0051121D01*
X0098157Y0051109D01*
X0098317Y0051093D01*
X0098477Y0051073D01*
X0098636Y0051049D01*
X0098794Y0051021D01*
X0098952Y0050990D01*
X0099108Y0050954D01*
X0099264Y0050915D01*
X0099419Y0050872D01*
X0099573Y0050825D01*
X0099726Y0050774D01*
X0099877Y0050719D01*
X0100027Y0050661D01*
X0100175Y0050599D01*
X0100322Y0050533D01*
X0100467Y0050464D01*
X0100610Y0050391D01*
X0100752Y0050315D01*
X0100891Y0050235D01*
X0101029Y0050152D01*
X0101164Y0050065D01*
X0101298Y0049975D01*
X0101429Y0049882D01*
X0101557Y0049786D01*
X0101683Y0049686D01*
X0101807Y0049583D01*
X0101928Y0049478D01*
X0102047Y0049369D01*
X0102163Y0049258D01*
X0102276Y0049143D01*
X0102386Y0049026D01*
X0102493Y0048906D01*
X0102597Y0048784D01*
X0102698Y0048659D01*
X0102796Y0048531D01*
X0102891Y0048401D01*
X0102983Y0048269D01*
X0103071Y0048135D01*
X0103156Y0047998D01*
X0103238Y0047860D01*
X0103316Y0047719D01*
X0103390Y0047577D01*
X0103461Y0047433D01*
X0103529Y0047287D01*
X0103592Y0047139D01*
X0103653Y0046990D01*
X0103709Y0046839D01*
X0103762Y0046687D01*
X0103811Y0046534D01*
X0103856Y0046380D01*
X0103897Y0046225D01*
X0103935Y0046068D01*
X0103968Y0045911D01*
X0103998Y0045753D01*
X0104024Y0045594D01*
X0104045Y0045435D01*
X0104063Y0045275D01*
X0104077Y0045115D01*
X0104087Y0044954D01*
X0104093Y0044794D01*
X0104095Y0044633D01*
X0104093Y0044472D01*
X0104087Y0044312D01*
X0104077Y0044151D01*
X0104063Y0043991D01*
X0104045Y0043831D01*
X0104024Y0043672D01*
X0103998Y0043513D01*
X0103968Y0043355D01*
X0103935Y0043198D01*
X0103897Y0043041D01*
X0103856Y0042886D01*
X0103811Y0042732D01*
X0103762Y0042579D01*
X0103709Y0042427D01*
X0103653Y0042276D01*
X0103592Y0042127D01*
X0103529Y0041979D01*
X0103461Y0041833D01*
X0103390Y0041689D01*
X0103316Y0041547D01*
X0103238Y0041406D01*
X0103156Y0041268D01*
X0103071Y0041131D01*
X0102983Y0040997D01*
X0102891Y0040865D01*
X0102796Y0040735D01*
X0102698Y0040607D01*
X0102597Y0040482D01*
X0102493Y0040360D01*
X0102386Y0040240D01*
X0102276Y0040123D01*
X0102163Y0040008D01*
X0102047Y0039897D01*
X0101928Y0039788D01*
X0101807Y0039683D01*
X0101683Y0039580D01*
X0101557Y0039480D01*
X0101429Y0039384D01*
X0101298Y0039291D01*
X0101164Y0039201D01*
X0101029Y0039114D01*
X0100891Y0039031D01*
X0100752Y0038951D01*
X0100610Y0038875D01*
X0100467Y0038802D01*
X0100322Y0038733D01*
X0100175Y0038667D01*
X0100027Y0038605D01*
X0099877Y0038547D01*
X0099726Y0038492D01*
X0099573Y0038441D01*
X0099419Y0038394D01*
X0099264Y0038351D01*
X0099108Y0038312D01*
X0098952Y0038276D01*
X0098794Y0038245D01*
X0098636Y0038217D01*
X0098477Y0038193D01*
X0098317Y0038173D01*
X0098157Y0038157D01*
X0097997Y0038145D01*
X0097836Y0038137D01*
X0097675Y0038133D01*
X0097515Y0038133D01*
X0097354Y0038137D01*
X0097193Y0038145D01*
X0097033Y0038157D01*
X0096873Y0038173D01*
X0096713Y0038193D01*
X0096554Y0038217D01*
X0096396Y0038245D01*
X0096238Y0038276D01*
X0096082Y0038312D01*
X0095926Y0038351D01*
X0095771Y0038394D01*
X0095617Y0038441D01*
X0095464Y0038492D01*
X0095313Y0038547D01*
X0095163Y0038605D01*
X0095015Y0038667D01*
X0094868Y0038733D01*
X0094723Y0038802D01*
X0094580Y0038875D01*
X0094438Y0038951D01*
X0094299Y0039031D01*
X0094161Y0039114D01*
X0094026Y0039201D01*
X0093892Y0039291D01*
X0093761Y0039384D01*
X0093633Y0039480D01*
X0093507Y0039580D01*
X0093383Y0039683D01*
X0093262Y0039788D01*
X0093143Y0039897D01*
X0093027Y0040008D01*
X0092914Y0040123D01*
X0092804Y0040240D01*
X0092697Y0040360D01*
X0092593Y0040482D01*
X0092492Y0040607D01*
X0092394Y0040735D01*
X0092299Y0040865D01*
X0092207Y0040997D01*
X0092119Y0041131D01*
X0092034Y0041268D01*
X0091952Y0041406D01*
X0091874Y0041547D01*
X0091800Y0041689D01*
X0091729Y0041833D01*
X0091661Y0041979D01*
X0091598Y0042127D01*
X0091537Y0042276D01*
X0091481Y0042427D01*
X0091428Y0042579D01*
X0091379Y0042732D01*
X0091334Y0042886D01*
X0091293Y0043041D01*
X0091255Y0043198D01*
X0091222Y0043355D01*
X0091192Y0043513D01*
X0091166Y0043672D01*
X0091145Y0043831D01*
X0091127Y0043991D01*
X0091113Y0044151D01*
X0091103Y0044312D01*
X0091097Y0044472D01*
X0091095Y0044633D01*
X0067595Y0052933D02*
X0067595Y0032933D01*
X0053595Y0032933D02*
X0051595Y0032933D01*
X0065095Y0053433D02*
X0065193Y0053435D01*
X0065291Y0053441D01*
X0065389Y0053450D01*
X0065486Y0053464D01*
X0065583Y0053481D01*
X0065679Y0053502D01*
X0065774Y0053527D01*
X0065868Y0053555D01*
X0065960Y0053588D01*
X0066052Y0053623D01*
X0066142Y0053663D01*
X0066230Y0053705D01*
X0066317Y0053752D01*
X0066401Y0053801D01*
X0066484Y0053854D01*
X0066564Y0053910D01*
X0066643Y0053970D01*
X0066719Y0054032D01*
X0066792Y0054097D01*
X0066863Y0054165D01*
X0066931Y0054236D01*
X0066996Y0054309D01*
X0067058Y0054385D01*
X0067118Y0054464D01*
X0067174Y0054544D01*
X0067227Y0054627D01*
X0067276Y0054711D01*
X0067323Y0054798D01*
X0067365Y0054886D01*
X0067405Y0054976D01*
X0067440Y0055068D01*
X0067473Y0055160D01*
X0067501Y0055254D01*
X0067526Y0055349D01*
X0067547Y0055445D01*
X0067564Y0055542D01*
X0067578Y0055639D01*
X0067587Y0055737D01*
X0067593Y0055835D01*
X0067595Y0055933D01*
X0067595Y0056433D02*
X0067595Y0057433D01*
X0232595Y0044933D02*
X0232749Y0044931D01*
X0232903Y0044925D01*
X0233057Y0044915D01*
X0233211Y0044901D01*
X0233364Y0044884D01*
X0233516Y0044862D01*
X0233668Y0044836D01*
X0233820Y0044807D01*
X0233970Y0044773D01*
X0234120Y0044736D01*
X0234268Y0044695D01*
X0234416Y0044650D01*
X0234562Y0044601D01*
X0234707Y0044549D01*
X0234850Y0044493D01*
X0234993Y0044433D01*
X0235133Y0044370D01*
X0235272Y0044303D01*
X0235409Y0044232D01*
X0235544Y0044158D01*
X0235677Y0044081D01*
X0235809Y0044000D01*
X0235938Y0043916D01*
X0236065Y0043828D01*
X0236189Y0043737D01*
X0236311Y0043644D01*
X0236431Y0043546D01*
X0236548Y0043446D01*
X0236663Y0043343D01*
X0236775Y0043237D01*
X0236884Y0043129D01*
X0236990Y0043017D01*
X0237094Y0042903D01*
X0237194Y0042786D01*
X0237292Y0042667D01*
X0237386Y0042545D01*
X0237477Y0042420D01*
X0232595Y0032933D02*
X0232443Y0032935D01*
X0232292Y0032941D01*
X0232141Y0032950D01*
X0231989Y0032964D01*
X0231839Y0032981D01*
X0231689Y0033002D01*
X0231539Y0033027D01*
X0231390Y0033055D01*
X0231242Y0033088D01*
X0231095Y0033124D01*
X0230948Y0033163D01*
X0230803Y0033207D01*
X0230659Y0033254D01*
X0230516Y0033305D01*
X0230375Y0033359D01*
X0230234Y0033417D01*
X0230096Y0033478D01*
X0229959Y0033543D01*
X0229823Y0033612D01*
X0229690Y0033683D01*
X0229558Y0033758D01*
X0229428Y0033837D01*
X0229301Y0033918D01*
X0229175Y0034003D01*
X0229051Y0034091D01*
X0228930Y0034182D01*
X0228811Y0034276D01*
X0228695Y0034374D01*
X0228581Y0034474D01*
X0228469Y0034576D01*
X0228361Y0034682D01*
X0228255Y0034790D01*
X0228151Y0034901D01*
X0228051Y0035015D01*
X0227953Y0035131D01*
X0227859Y0035250D01*
X0232595Y0032933D02*
X0232747Y0032935D01*
X0232898Y0032941D01*
X0233049Y0032950D01*
X0233201Y0032964D01*
X0233351Y0032981D01*
X0233501Y0033002D01*
X0233651Y0033027D01*
X0233800Y0033055D01*
X0233948Y0033088D01*
X0234095Y0033124D01*
X0234242Y0033163D01*
X0234387Y0033207D01*
X0234531Y0033254D01*
X0234674Y0033305D01*
X0234815Y0033359D01*
X0234956Y0033417D01*
X0235094Y0033478D01*
X0235231Y0033543D01*
X0235367Y0033612D01*
X0235500Y0033683D01*
X0235632Y0033758D01*
X0235762Y0033837D01*
X0235889Y0033918D01*
X0236015Y0034003D01*
X0236139Y0034091D01*
X0236260Y0034182D01*
X0236379Y0034276D01*
X0236495Y0034374D01*
X0236609Y0034474D01*
X0236721Y0034576D01*
X0236829Y0034682D01*
X0236935Y0034790D01*
X0237039Y0034901D01*
X0237139Y0035015D01*
X0237237Y0035131D01*
X0237331Y0035250D01*
X0232595Y0044933D02*
X0232445Y0044931D01*
X0232294Y0044925D01*
X0232144Y0044916D01*
X0231995Y0044903D01*
X0231845Y0044886D01*
X0231696Y0044865D01*
X0231548Y0044841D01*
X0231400Y0044813D01*
X0231253Y0044781D01*
X0231107Y0044746D01*
X0230962Y0044706D01*
X0230818Y0044664D01*
X0230675Y0044617D01*
X0230533Y0044567D01*
X0230392Y0044514D01*
X0230253Y0044457D01*
X0230115Y0044397D01*
X0229979Y0044333D01*
X0229845Y0044266D01*
X0229712Y0044195D01*
X0229581Y0044121D01*
X0229452Y0044044D01*
X0229325Y0043963D01*
X0229200Y0043880D01*
X0229077Y0043793D01*
X0228956Y0043704D01*
X0228838Y0043611D01*
X0228722Y0043515D01*
X0228608Y0043417D01*
X0228497Y0043316D01*
X0228388Y0043211D01*
X0228283Y0043105D01*
X0228179Y0042995D01*
X0228079Y0042883D01*
X0227981Y0042769D01*
X0227887Y0042652D01*
X0227795Y0042533D01*
D12*
X0227270Y0049133D02*
X0227270Y0052736D01*
X0229072Y0052736D01*
X0229672Y0052136D01*
X0229672Y0050935D01*
X0229072Y0050334D01*
X0227270Y0050334D01*
X0230954Y0049133D02*
X0232155Y0050334D01*
X0233356Y0049133D01*
X0233356Y0052736D01*
X0234637Y0052736D02*
X0236438Y0052736D01*
X0237039Y0052136D01*
X0237039Y0050935D01*
X0236438Y0050334D01*
X0234637Y0050334D01*
X0235838Y0050334D02*
X0237039Y0049133D01*
X0234637Y0049133D02*
X0234637Y0052736D01*
X0230954Y0052736D02*
X0230954Y0049133D01*
X0184597Y0033736D02*
X0184597Y0030133D01*
X0185197Y0031935D02*
X0182795Y0031935D01*
X0184597Y0033736D01*
X0181514Y0033136D02*
X0180914Y0033736D01*
X0179712Y0033736D01*
X0179112Y0033136D01*
X0179112Y0030734D01*
X0179712Y0030133D01*
X0180914Y0030133D01*
X0181514Y0030734D01*
X0165197Y0030734D02*
X0164597Y0030133D01*
X0163396Y0030133D01*
X0162795Y0030734D01*
X0161514Y0030734D02*
X0160914Y0030133D01*
X0159713Y0030133D01*
X0159112Y0030734D01*
X0159112Y0033136D01*
X0159713Y0033736D01*
X0160914Y0033736D01*
X0161514Y0033136D01*
X0162795Y0033136D02*
X0163396Y0033736D01*
X0164597Y0033736D01*
X0165197Y0033136D01*
X0165197Y0032535D01*
X0164597Y0031935D01*
X0165197Y0031334D01*
X0165197Y0030734D01*
X0164597Y0031935D02*
X0163996Y0031935D01*
X0145197Y0032535D02*
X0145197Y0033136D01*
X0144597Y0033736D01*
X0143396Y0033736D01*
X0142795Y0033136D01*
X0141514Y0033136D02*
X0140914Y0033736D01*
X0139713Y0033736D01*
X0139112Y0033136D01*
X0139112Y0030734D01*
X0139713Y0030133D01*
X0140914Y0030133D01*
X0141514Y0030734D01*
X0142795Y0030133D02*
X0145197Y0032535D01*
X0145197Y0030133D02*
X0142795Y0030133D01*
X0125197Y0030133D02*
X0122795Y0030133D01*
X0123996Y0030133D02*
X0123996Y0033736D01*
X0122795Y0032535D01*
X0121514Y0033136D02*
X0120914Y0033736D01*
X0119712Y0033736D01*
X0119112Y0033136D01*
X0119112Y0030734D01*
X0119712Y0030133D01*
X0120914Y0030133D01*
X0121514Y0030734D01*
X0169112Y0135133D02*
X0169112Y0138736D01*
X0170914Y0138736D01*
X0171514Y0138136D01*
X0171514Y0136935D01*
X0170914Y0136334D01*
X0169112Y0136334D01*
X0170313Y0136334D02*
X0171514Y0135133D01*
X0172795Y0135133D02*
X0175197Y0137535D01*
X0175197Y0138136D01*
X0174597Y0138736D01*
X0173396Y0138736D01*
X0172795Y0138136D01*
X0172795Y0135133D02*
X0175197Y0135133D01*
X0187270Y0135133D02*
X0187270Y0138736D01*
X0189072Y0138736D01*
X0189672Y0138136D01*
X0189672Y0136935D01*
X0189072Y0136334D01*
X0187270Y0136334D01*
X0188471Y0136334D02*
X0189672Y0135133D01*
X0190954Y0135734D02*
X0191554Y0135133D01*
X0192755Y0135133D01*
X0193356Y0135734D01*
X0193356Y0136334D01*
X0192755Y0136935D01*
X0191554Y0136935D01*
X0190954Y0137535D01*
X0190954Y0138136D01*
X0191554Y0138736D01*
X0192755Y0138736D01*
X0193356Y0138136D01*
X0194637Y0138736D02*
X0197039Y0138736D01*
X0195838Y0138736D02*
X0195838Y0135133D01*
X0207270Y0138736D02*
X0209672Y0138736D01*
X0208471Y0138736D02*
X0208471Y0135133D01*
X0210954Y0135133D02*
X0213356Y0138736D01*
X0214637Y0138736D02*
X0216438Y0138736D01*
X0217039Y0138136D01*
X0217039Y0135734D01*
X0216438Y0135133D01*
X0214637Y0135133D01*
X0214637Y0138736D01*
X0210954Y0138736D02*
X0213356Y0135133D01*
X0227270Y0135133D02*
X0227270Y0138736D01*
X0229072Y0138736D01*
X0229672Y0138136D01*
X0229672Y0136935D01*
X0229072Y0136334D01*
X0227270Y0136334D01*
X0228471Y0136334D02*
X0229672Y0135133D01*
X0230954Y0135133D02*
X0233356Y0138736D01*
X0234637Y0138736D02*
X0236438Y0138736D01*
X0237039Y0138136D01*
X0237039Y0135734D01*
X0236438Y0135133D01*
X0234637Y0135133D01*
X0234637Y0138736D01*
X0230954Y0138736D02*
X0233356Y0135133D01*
X0116395Y0145450D02*
X0112792Y0147852D01*
X0113993Y0149133D02*
X0112792Y0150334D01*
X0116395Y0150334D01*
X0116395Y0149133D02*
X0116395Y0151535D01*
X0116395Y0147852D02*
X0112792Y0145450D01*
D13*
X0133241Y0141187D02*
X0133241Y0136683D01*
X0133241Y0138184D02*
X0135493Y0138184D01*
X0136244Y0138935D01*
X0136244Y0140436D01*
X0135493Y0141187D01*
X0133241Y0141187D01*
X0134742Y0138184D02*
X0136244Y0136683D01*
X0137845Y0136683D02*
X0140848Y0136683D01*
X0139346Y0136683D02*
X0139346Y0141187D01*
X0137845Y0139686D01*
X0104845Y0123935D02*
X0104845Y0122434D01*
X0104095Y0121683D01*
X0102593Y0121683D02*
X0101843Y0123184D01*
X0101843Y0123935D01*
X0102593Y0124686D01*
X0104095Y0124686D01*
X0104845Y0123935D01*
X0102593Y0121683D02*
X0100341Y0121683D01*
X0100341Y0124686D01*
X0094845Y0123935D02*
X0094845Y0122434D01*
X0094095Y0121683D01*
X0092593Y0122434D02*
X0092593Y0124686D01*
X0091092Y0124686D02*
X0094095Y0124686D01*
X0094845Y0123935D01*
X0092593Y0122434D02*
X0091843Y0121683D01*
X0091092Y0121683D01*
X0090341Y0122434D01*
X0090341Y0123935D01*
X0091092Y0124686D01*
X0075568Y0146682D02*
X0077069Y0148183D01*
X0076319Y0148183D01*
X0076319Y0148934D01*
X0077069Y0148934D01*
X0077069Y0148183D01*
X0078637Y0148934D02*
X0079388Y0148183D01*
X0080889Y0148183D01*
X0081640Y0148934D01*
X0081640Y0150435D01*
X0080889Y0151186D01*
X0080139Y0151186D01*
X0078637Y0150435D01*
X0078637Y0152687D01*
X0081640Y0152687D01*
X0083241Y0150435D02*
X0086244Y0150435D01*
X0085493Y0148183D02*
X0085493Y0152687D01*
X0083241Y0150435D01*
X0073967Y0151186D02*
X0073967Y0151936D01*
X0073216Y0152687D01*
X0071715Y0152687D01*
X0070964Y0151936D01*
X0073967Y0151186D02*
X0070964Y0148183D01*
X0073967Y0148183D01*
X0181707Y0096187D02*
X0183208Y0096187D01*
X0182457Y0096187D02*
X0182457Y0091683D01*
X0181707Y0091683D02*
X0183208Y0091683D01*
X0184776Y0092434D02*
X0185526Y0091683D01*
X0187028Y0091683D01*
X0187778Y0092434D01*
X0189380Y0091683D02*
X0192382Y0091683D01*
X0190881Y0091683D02*
X0190881Y0096187D01*
X0189380Y0094686D01*
X0187778Y0095436D02*
X0187028Y0096187D01*
X0185526Y0096187D01*
X0184776Y0095436D01*
X0184776Y0092434D01*
X0138150Y0067683D02*
X0135147Y0067683D01*
X0136648Y0067683D02*
X0136648Y0072187D01*
X0135147Y0070686D01*
X0133546Y0072187D02*
X0133546Y0069184D01*
X0132044Y0067683D01*
X0130543Y0069184D01*
X0130543Y0072187D01*
X0128942Y0071436D02*
X0128191Y0072187D01*
X0126690Y0072187D01*
X0125939Y0071436D01*
X0125939Y0070686D01*
X0126690Y0069935D01*
X0128191Y0069935D01*
X0128942Y0069184D01*
X0128942Y0068434D01*
X0128191Y0067683D01*
X0126690Y0067683D01*
X0125939Y0068434D01*
X0104845Y0067186D02*
X0104845Y0064183D01*
X0104845Y0065684D02*
X0100341Y0065684D01*
X0101843Y0064183D01*
X0094845Y0064934D02*
X0094845Y0066435D01*
X0094095Y0067186D01*
X0093344Y0067186D01*
X0092593Y0066435D01*
X0092593Y0064183D01*
X0094095Y0064183D01*
X0094845Y0064934D01*
X0092593Y0064183D02*
X0091092Y0065684D01*
X0090341Y0067186D01*
X0063845Y0069538D02*
X0063095Y0068787D01*
X0060092Y0071790D01*
X0063095Y0071790D01*
X0063845Y0071039D01*
X0063845Y0069538D01*
X0063095Y0068787D02*
X0060092Y0068787D01*
X0059341Y0069538D01*
X0059341Y0071039D01*
X0060092Y0071790D01*
X0060092Y0073391D02*
X0059341Y0074142D01*
X0059341Y0075643D01*
X0060092Y0076393D01*
X0063095Y0076393D01*
X0063845Y0075643D01*
X0063845Y0074142D01*
X0063095Y0073391D01*
X0061593Y0074142D02*
X0061593Y0076393D01*
X0061593Y0074142D02*
X0060843Y0073391D01*
X0060092Y0073391D01*
X0059341Y0067186D02*
X0059341Y0064183D01*
X0063845Y0064183D01*
X0061593Y0064183D02*
X0061593Y0065684D01*
X0225939Y0125934D02*
X0226690Y0125183D01*
X0228191Y0125183D01*
X0228942Y0125934D01*
X0228942Y0126684D01*
X0228191Y0127435D01*
X0226690Y0127435D01*
X0225939Y0128186D01*
X0225939Y0128936D01*
X0226690Y0129687D01*
X0228191Y0129687D01*
X0228942Y0128936D01*
X0230543Y0129687D02*
X0230543Y0126684D01*
X0232044Y0125183D01*
X0233546Y0126684D01*
X0233546Y0129687D01*
X0235147Y0128936D02*
X0235898Y0129687D01*
X0237399Y0129687D01*
X0238150Y0128936D01*
X0238150Y0128186D01*
X0235147Y0125183D01*
X0238150Y0125183D01*
D14*
X0225536Y0152698D02*
X0225629Y0152866D01*
X0225725Y0153032D01*
X0225825Y0153196D01*
X0225930Y0153357D01*
X0226038Y0153516D01*
X0226150Y0153672D01*
X0226266Y0153826D01*
X0226385Y0153976D01*
X0226508Y0154124D01*
X0226634Y0154269D01*
X0226764Y0154410D01*
X0226897Y0154549D01*
X0227034Y0154684D01*
X0227174Y0154816D01*
X0227316Y0154944D01*
X0227462Y0155069D01*
X0227611Y0155191D01*
X0227763Y0155309D01*
X0227917Y0155423D01*
X0228075Y0155533D01*
X0228234Y0155640D01*
X0228397Y0155743D01*
X0228562Y0155842D01*
X0228729Y0155937D01*
X0228898Y0156027D01*
X0229069Y0156114D01*
X0229243Y0156197D01*
X0229418Y0156275D01*
X0229596Y0156349D01*
X0229775Y0156419D01*
X0229955Y0156485D01*
X0230137Y0156546D01*
X0230321Y0156603D01*
X0230506Y0156655D01*
X0230692Y0156703D01*
X0230879Y0156747D01*
X0231067Y0156786D01*
X0231256Y0156820D01*
X0231446Y0156850D01*
X0231636Y0156875D01*
X0231827Y0156896D01*
X0232019Y0156912D01*
X0232211Y0156924D01*
X0232403Y0156931D01*
X0232595Y0156933D01*
X0225649Y0144964D02*
X0225748Y0144795D01*
X0225852Y0144629D01*
X0225959Y0144465D01*
X0226070Y0144304D01*
X0226185Y0144146D01*
X0226304Y0143991D01*
X0226427Y0143838D01*
X0226553Y0143689D01*
X0226683Y0143543D01*
X0226817Y0143400D01*
X0226954Y0143260D01*
X0227094Y0143124D01*
X0227238Y0142991D01*
X0227385Y0142862D01*
X0227535Y0142736D01*
X0227688Y0142615D01*
X0227844Y0142496D01*
X0228003Y0142382D01*
X0228164Y0142272D01*
X0228329Y0142166D01*
X0228495Y0142063D01*
X0228665Y0141965D01*
X0228836Y0141871D01*
X0229010Y0141781D01*
X0229186Y0141696D01*
X0229364Y0141614D01*
X0229544Y0141538D01*
X0229726Y0141465D01*
X0229909Y0141397D01*
X0230094Y0141334D01*
X0230281Y0141275D01*
X0230469Y0141221D01*
X0230658Y0141171D01*
X0230848Y0141126D01*
X0231040Y0141086D01*
X0231232Y0141050D01*
X0231425Y0141019D01*
X0231619Y0140993D01*
X0231814Y0140971D01*
X0232009Y0140955D01*
X0232204Y0140943D01*
X0232400Y0140935D01*
X0232595Y0140933D01*
X0232788Y0140935D01*
X0232981Y0140942D01*
X0233173Y0140954D01*
X0233366Y0140970D01*
X0233558Y0140991D01*
X0233749Y0141017D01*
X0233939Y0141047D01*
X0234129Y0141082D01*
X0234318Y0141121D01*
X0234506Y0141165D01*
X0234693Y0141213D01*
X0234879Y0141266D01*
X0235063Y0141323D01*
X0235246Y0141385D01*
X0235427Y0141451D01*
X0235607Y0141522D01*
X0235785Y0141596D01*
X0235961Y0141675D01*
X0236135Y0141759D01*
X0236307Y0141846D01*
X0236477Y0141938D01*
X0236644Y0142034D01*
X0236810Y0142133D01*
X0236973Y0142237D01*
X0237133Y0142344D01*
X0237290Y0142456D01*
X0237445Y0142571D01*
X0237597Y0142690D01*
X0237746Y0142812D01*
X0237893Y0142938D01*
X0238036Y0143068D01*
X0238176Y0143201D01*
X0238312Y0143337D01*
X0238446Y0143477D01*
X0238575Y0143619D01*
X0238702Y0143765D01*
X0238741Y0154055D02*
X0238614Y0154203D01*
X0238484Y0154348D01*
X0238351Y0154489D01*
X0238214Y0154628D01*
X0238074Y0154763D01*
X0237930Y0154894D01*
X0237783Y0155022D01*
X0237634Y0155147D01*
X0237481Y0155268D01*
X0237326Y0155385D01*
X0237167Y0155498D01*
X0237006Y0155607D01*
X0236842Y0155712D01*
X0236676Y0155814D01*
X0236507Y0155911D01*
X0236337Y0156004D01*
X0236163Y0156093D01*
X0235988Y0156178D01*
X0235811Y0156258D01*
X0235632Y0156334D01*
X0235451Y0156406D01*
X0235268Y0156473D01*
X0235084Y0156536D01*
X0234898Y0156594D01*
X0234711Y0156648D01*
X0234523Y0156697D01*
X0234333Y0156742D01*
X0234143Y0156782D01*
X0233951Y0156817D01*
X0233759Y0156848D01*
X0233566Y0156874D01*
X0233372Y0156895D01*
X0233178Y0156912D01*
X0232984Y0156924D01*
X0232790Y0156931D01*
X0232595Y0156933D01*
X0212595Y0156933D02*
X0212403Y0156931D01*
X0212211Y0156924D01*
X0212019Y0156912D01*
X0211827Y0156896D01*
X0211636Y0156875D01*
X0211446Y0156850D01*
X0211256Y0156820D01*
X0211067Y0156786D01*
X0210879Y0156747D01*
X0210692Y0156703D01*
X0210506Y0156655D01*
X0210321Y0156603D01*
X0210137Y0156546D01*
X0209955Y0156485D01*
X0209775Y0156419D01*
X0209596Y0156349D01*
X0209418Y0156275D01*
X0209243Y0156197D01*
X0209069Y0156114D01*
X0208898Y0156027D01*
X0208729Y0155937D01*
X0208562Y0155842D01*
X0208397Y0155743D01*
X0208234Y0155640D01*
X0208075Y0155533D01*
X0207917Y0155423D01*
X0207763Y0155309D01*
X0207611Y0155191D01*
X0207462Y0155069D01*
X0207316Y0154944D01*
X0207174Y0154816D01*
X0207034Y0154684D01*
X0206897Y0154549D01*
X0206764Y0154410D01*
X0206634Y0154269D01*
X0206508Y0154124D01*
X0206385Y0153976D01*
X0206266Y0153826D01*
X0206150Y0153672D01*
X0206038Y0153516D01*
X0205930Y0153357D01*
X0205825Y0153196D01*
X0205725Y0153032D01*
X0205629Y0152866D01*
X0205536Y0152698D01*
X0205649Y0144964D02*
X0205748Y0144795D01*
X0205852Y0144629D01*
X0205959Y0144465D01*
X0206070Y0144304D01*
X0206185Y0144146D01*
X0206304Y0143991D01*
X0206427Y0143838D01*
X0206553Y0143689D01*
X0206683Y0143543D01*
X0206817Y0143400D01*
X0206954Y0143260D01*
X0207094Y0143124D01*
X0207238Y0142991D01*
X0207385Y0142862D01*
X0207535Y0142736D01*
X0207688Y0142615D01*
X0207844Y0142496D01*
X0208003Y0142382D01*
X0208164Y0142272D01*
X0208329Y0142166D01*
X0208495Y0142063D01*
X0208665Y0141965D01*
X0208836Y0141871D01*
X0209010Y0141781D01*
X0209186Y0141696D01*
X0209364Y0141614D01*
X0209544Y0141538D01*
X0209726Y0141465D01*
X0209909Y0141397D01*
X0210094Y0141334D01*
X0210281Y0141275D01*
X0210469Y0141221D01*
X0210658Y0141171D01*
X0210848Y0141126D01*
X0211040Y0141086D01*
X0211232Y0141050D01*
X0211425Y0141019D01*
X0211619Y0140993D01*
X0211814Y0140971D01*
X0212009Y0140955D01*
X0212204Y0140943D01*
X0212400Y0140935D01*
X0212595Y0140933D01*
X0212788Y0140935D01*
X0212981Y0140942D01*
X0213173Y0140954D01*
X0213366Y0140970D01*
X0213558Y0140991D01*
X0213749Y0141017D01*
X0213939Y0141047D01*
X0214129Y0141082D01*
X0214318Y0141121D01*
X0214506Y0141165D01*
X0214693Y0141213D01*
X0214879Y0141266D01*
X0215063Y0141323D01*
X0215246Y0141385D01*
X0215427Y0141451D01*
X0215607Y0141522D01*
X0215785Y0141596D01*
X0215961Y0141675D01*
X0216135Y0141759D01*
X0216307Y0141846D01*
X0216477Y0141938D01*
X0216644Y0142034D01*
X0216810Y0142133D01*
X0216973Y0142237D01*
X0217133Y0142344D01*
X0217290Y0142456D01*
X0217445Y0142571D01*
X0217597Y0142690D01*
X0217746Y0142812D01*
X0217893Y0142938D01*
X0218036Y0143068D01*
X0218176Y0143201D01*
X0218312Y0143337D01*
X0218446Y0143477D01*
X0218575Y0143619D01*
X0218702Y0143765D01*
X0218741Y0154055D02*
X0218614Y0154203D01*
X0218484Y0154348D01*
X0218351Y0154489D01*
X0218214Y0154628D01*
X0218074Y0154763D01*
X0217930Y0154894D01*
X0217783Y0155022D01*
X0217634Y0155147D01*
X0217481Y0155268D01*
X0217326Y0155385D01*
X0217167Y0155498D01*
X0217006Y0155607D01*
X0216842Y0155712D01*
X0216676Y0155814D01*
X0216507Y0155911D01*
X0216337Y0156004D01*
X0216163Y0156093D01*
X0215988Y0156178D01*
X0215811Y0156258D01*
X0215632Y0156334D01*
X0215451Y0156406D01*
X0215268Y0156473D01*
X0215084Y0156536D01*
X0214898Y0156594D01*
X0214711Y0156648D01*
X0214523Y0156697D01*
X0214333Y0156742D01*
X0214143Y0156782D01*
X0213951Y0156817D01*
X0213759Y0156848D01*
X0213566Y0156874D01*
X0213372Y0156895D01*
X0213178Y0156912D01*
X0212984Y0156924D01*
X0212790Y0156931D01*
X0212595Y0156933D01*
X0192595Y0156933D02*
X0192403Y0156931D01*
X0192211Y0156924D01*
X0192019Y0156912D01*
X0191827Y0156896D01*
X0191636Y0156875D01*
X0191446Y0156850D01*
X0191256Y0156820D01*
X0191067Y0156786D01*
X0190879Y0156747D01*
X0190692Y0156703D01*
X0190506Y0156655D01*
X0190321Y0156603D01*
X0190137Y0156546D01*
X0189955Y0156485D01*
X0189775Y0156419D01*
X0189596Y0156349D01*
X0189418Y0156275D01*
X0189243Y0156197D01*
X0189069Y0156114D01*
X0188898Y0156027D01*
X0188729Y0155937D01*
X0188562Y0155842D01*
X0188397Y0155743D01*
X0188234Y0155640D01*
X0188075Y0155533D01*
X0187917Y0155423D01*
X0187763Y0155309D01*
X0187611Y0155191D01*
X0187462Y0155069D01*
X0187316Y0154944D01*
X0187174Y0154816D01*
X0187034Y0154684D01*
X0186897Y0154549D01*
X0186764Y0154410D01*
X0186634Y0154269D01*
X0186508Y0154124D01*
X0186385Y0153976D01*
X0186266Y0153826D01*
X0186150Y0153672D01*
X0186038Y0153516D01*
X0185930Y0153357D01*
X0185825Y0153196D01*
X0185725Y0153032D01*
X0185629Y0152866D01*
X0185536Y0152698D01*
X0185649Y0144964D02*
X0185748Y0144795D01*
X0185852Y0144629D01*
X0185959Y0144465D01*
X0186070Y0144304D01*
X0186185Y0144146D01*
X0186304Y0143991D01*
X0186427Y0143838D01*
X0186553Y0143689D01*
X0186683Y0143543D01*
X0186817Y0143400D01*
X0186954Y0143260D01*
X0187094Y0143124D01*
X0187238Y0142991D01*
X0187385Y0142862D01*
X0187535Y0142736D01*
X0187688Y0142615D01*
X0187844Y0142496D01*
X0188003Y0142382D01*
X0188164Y0142272D01*
X0188329Y0142166D01*
X0188495Y0142063D01*
X0188665Y0141965D01*
X0188836Y0141871D01*
X0189010Y0141781D01*
X0189186Y0141696D01*
X0189364Y0141614D01*
X0189544Y0141538D01*
X0189726Y0141465D01*
X0189909Y0141397D01*
X0190094Y0141334D01*
X0190281Y0141275D01*
X0190469Y0141221D01*
X0190658Y0141171D01*
X0190848Y0141126D01*
X0191040Y0141086D01*
X0191232Y0141050D01*
X0191425Y0141019D01*
X0191619Y0140993D01*
X0191814Y0140971D01*
X0192009Y0140955D01*
X0192204Y0140943D01*
X0192400Y0140935D01*
X0192595Y0140933D01*
X0192788Y0140935D01*
X0192981Y0140942D01*
X0193173Y0140954D01*
X0193366Y0140970D01*
X0193558Y0140991D01*
X0193749Y0141017D01*
X0193939Y0141047D01*
X0194129Y0141082D01*
X0194318Y0141121D01*
X0194506Y0141165D01*
X0194693Y0141213D01*
X0194879Y0141266D01*
X0195063Y0141323D01*
X0195246Y0141385D01*
X0195427Y0141451D01*
X0195607Y0141522D01*
X0195785Y0141596D01*
X0195961Y0141675D01*
X0196135Y0141759D01*
X0196307Y0141846D01*
X0196477Y0141938D01*
X0196644Y0142034D01*
X0196810Y0142133D01*
X0196973Y0142237D01*
X0197133Y0142344D01*
X0197290Y0142456D01*
X0197445Y0142571D01*
X0197597Y0142690D01*
X0197746Y0142812D01*
X0197893Y0142938D01*
X0198036Y0143068D01*
X0198176Y0143201D01*
X0198312Y0143337D01*
X0198446Y0143477D01*
X0198575Y0143619D01*
X0198702Y0143765D01*
X0198741Y0154055D02*
X0198614Y0154203D01*
X0198484Y0154348D01*
X0198351Y0154489D01*
X0198214Y0154628D01*
X0198074Y0154763D01*
X0197930Y0154894D01*
X0197783Y0155022D01*
X0197634Y0155147D01*
X0197481Y0155268D01*
X0197326Y0155385D01*
X0197167Y0155498D01*
X0197006Y0155607D01*
X0196842Y0155712D01*
X0196676Y0155814D01*
X0196507Y0155911D01*
X0196337Y0156004D01*
X0196163Y0156093D01*
X0195988Y0156178D01*
X0195811Y0156258D01*
X0195632Y0156334D01*
X0195451Y0156406D01*
X0195268Y0156473D01*
X0195084Y0156536D01*
X0194898Y0156594D01*
X0194711Y0156648D01*
X0194523Y0156697D01*
X0194333Y0156742D01*
X0194143Y0156782D01*
X0193951Y0156817D01*
X0193759Y0156848D01*
X0193566Y0156874D01*
X0193372Y0156895D01*
X0193178Y0156912D01*
X0192984Y0156924D01*
X0192790Y0156931D01*
X0192595Y0156933D01*
X0172595Y0156933D02*
X0172403Y0156931D01*
X0172211Y0156924D01*
X0172019Y0156912D01*
X0171827Y0156896D01*
X0171636Y0156875D01*
X0171446Y0156850D01*
X0171256Y0156820D01*
X0171067Y0156786D01*
X0170879Y0156747D01*
X0170692Y0156703D01*
X0170506Y0156655D01*
X0170321Y0156603D01*
X0170137Y0156546D01*
X0169955Y0156485D01*
X0169775Y0156419D01*
X0169596Y0156349D01*
X0169418Y0156275D01*
X0169243Y0156197D01*
X0169069Y0156114D01*
X0168898Y0156027D01*
X0168729Y0155937D01*
X0168562Y0155842D01*
X0168397Y0155743D01*
X0168234Y0155640D01*
X0168075Y0155533D01*
X0167917Y0155423D01*
X0167763Y0155309D01*
X0167611Y0155191D01*
X0167462Y0155069D01*
X0167316Y0154944D01*
X0167174Y0154816D01*
X0167034Y0154684D01*
X0166897Y0154549D01*
X0166764Y0154410D01*
X0166634Y0154269D01*
X0166508Y0154124D01*
X0166385Y0153976D01*
X0166266Y0153826D01*
X0166150Y0153672D01*
X0166038Y0153516D01*
X0165930Y0153357D01*
X0165825Y0153196D01*
X0165725Y0153032D01*
X0165629Y0152866D01*
X0165536Y0152698D01*
X0165649Y0144964D02*
X0165748Y0144795D01*
X0165852Y0144629D01*
X0165959Y0144465D01*
X0166070Y0144304D01*
X0166185Y0144146D01*
X0166304Y0143991D01*
X0166427Y0143838D01*
X0166553Y0143689D01*
X0166683Y0143543D01*
X0166817Y0143400D01*
X0166954Y0143260D01*
X0167094Y0143124D01*
X0167238Y0142991D01*
X0167385Y0142862D01*
X0167535Y0142736D01*
X0167688Y0142615D01*
X0167844Y0142496D01*
X0168003Y0142382D01*
X0168164Y0142272D01*
X0168329Y0142166D01*
X0168495Y0142063D01*
X0168665Y0141965D01*
X0168836Y0141871D01*
X0169010Y0141781D01*
X0169186Y0141696D01*
X0169364Y0141614D01*
X0169544Y0141538D01*
X0169726Y0141465D01*
X0169909Y0141397D01*
X0170094Y0141334D01*
X0170281Y0141275D01*
X0170469Y0141221D01*
X0170658Y0141171D01*
X0170848Y0141126D01*
X0171040Y0141086D01*
X0171232Y0141050D01*
X0171425Y0141019D01*
X0171619Y0140993D01*
X0171814Y0140971D01*
X0172009Y0140955D01*
X0172204Y0140943D01*
X0172400Y0140935D01*
X0172595Y0140933D01*
X0172788Y0140935D01*
X0172981Y0140942D01*
X0173173Y0140954D01*
X0173366Y0140970D01*
X0173558Y0140991D01*
X0173749Y0141017D01*
X0173939Y0141047D01*
X0174129Y0141082D01*
X0174318Y0141121D01*
X0174506Y0141165D01*
X0174693Y0141213D01*
X0174879Y0141266D01*
X0175063Y0141323D01*
X0175246Y0141385D01*
X0175427Y0141451D01*
X0175607Y0141522D01*
X0175785Y0141596D01*
X0175961Y0141675D01*
X0176135Y0141759D01*
X0176307Y0141846D01*
X0176477Y0141938D01*
X0176644Y0142034D01*
X0176810Y0142133D01*
X0176973Y0142237D01*
X0177133Y0142344D01*
X0177290Y0142456D01*
X0177445Y0142571D01*
X0177597Y0142690D01*
X0177746Y0142812D01*
X0177893Y0142938D01*
X0178036Y0143068D01*
X0178176Y0143201D01*
X0178312Y0143337D01*
X0178446Y0143477D01*
X0178575Y0143619D01*
X0178702Y0143765D01*
X0178741Y0154055D02*
X0178614Y0154203D01*
X0178484Y0154348D01*
X0178351Y0154489D01*
X0178214Y0154628D01*
X0178074Y0154763D01*
X0177930Y0154894D01*
X0177783Y0155022D01*
X0177634Y0155147D01*
X0177481Y0155268D01*
X0177326Y0155385D01*
X0177167Y0155498D01*
X0177006Y0155607D01*
X0176842Y0155712D01*
X0176676Y0155814D01*
X0176507Y0155911D01*
X0176337Y0156004D01*
X0176163Y0156093D01*
X0175988Y0156178D01*
X0175811Y0156258D01*
X0175632Y0156334D01*
X0175451Y0156406D01*
X0175268Y0156473D01*
X0175084Y0156536D01*
X0174898Y0156594D01*
X0174711Y0156648D01*
X0174523Y0156697D01*
X0174333Y0156742D01*
X0174143Y0156782D01*
X0173951Y0156817D01*
X0173759Y0156848D01*
X0173566Y0156874D01*
X0173372Y0156895D01*
X0173178Y0156912D01*
X0172984Y0156924D01*
X0172790Y0156931D01*
X0172595Y0156933D01*
X0225649Y0034964D02*
X0225748Y0034795D01*
X0225852Y0034629D01*
X0225959Y0034465D01*
X0226070Y0034304D01*
X0226185Y0034146D01*
X0226304Y0033991D01*
X0226427Y0033838D01*
X0226553Y0033689D01*
X0226683Y0033543D01*
X0226817Y0033400D01*
X0226954Y0033260D01*
X0227094Y0033124D01*
X0227238Y0032991D01*
X0227385Y0032862D01*
X0227535Y0032736D01*
X0227688Y0032615D01*
X0227844Y0032496D01*
X0228003Y0032382D01*
X0228164Y0032272D01*
X0228329Y0032166D01*
X0228495Y0032063D01*
X0228665Y0031965D01*
X0228836Y0031871D01*
X0229010Y0031781D01*
X0229186Y0031696D01*
X0229364Y0031614D01*
X0229544Y0031538D01*
X0229726Y0031465D01*
X0229909Y0031397D01*
X0230094Y0031334D01*
X0230281Y0031275D01*
X0230469Y0031221D01*
X0230658Y0031171D01*
X0230848Y0031126D01*
X0231040Y0031086D01*
X0231232Y0031050D01*
X0231425Y0031019D01*
X0231619Y0030993D01*
X0231814Y0030971D01*
X0232009Y0030955D01*
X0232204Y0030943D01*
X0232400Y0030935D01*
X0232595Y0030933D01*
X0225536Y0042698D02*
X0225629Y0042866D01*
X0225725Y0043032D01*
X0225825Y0043196D01*
X0225930Y0043357D01*
X0226038Y0043516D01*
X0226150Y0043672D01*
X0226266Y0043826D01*
X0226385Y0043976D01*
X0226508Y0044124D01*
X0226634Y0044269D01*
X0226764Y0044410D01*
X0226897Y0044549D01*
X0227034Y0044684D01*
X0227174Y0044816D01*
X0227316Y0044944D01*
X0227462Y0045069D01*
X0227611Y0045191D01*
X0227763Y0045309D01*
X0227917Y0045423D01*
X0228075Y0045533D01*
X0228234Y0045640D01*
X0228397Y0045743D01*
X0228562Y0045842D01*
X0228729Y0045937D01*
X0228898Y0046027D01*
X0229069Y0046114D01*
X0229243Y0046197D01*
X0229418Y0046275D01*
X0229596Y0046349D01*
X0229775Y0046419D01*
X0229955Y0046485D01*
X0230137Y0046546D01*
X0230321Y0046603D01*
X0230506Y0046655D01*
X0230692Y0046703D01*
X0230879Y0046747D01*
X0231067Y0046786D01*
X0231256Y0046820D01*
X0231446Y0046850D01*
X0231636Y0046875D01*
X0231827Y0046896D01*
X0232019Y0046912D01*
X0232211Y0046924D01*
X0232403Y0046931D01*
X0232595Y0046933D01*
X0238702Y0033765D02*
X0238575Y0033619D01*
X0238446Y0033477D01*
X0238312Y0033337D01*
X0238176Y0033201D01*
X0238036Y0033068D01*
X0237893Y0032938D01*
X0237746Y0032812D01*
X0237597Y0032690D01*
X0237445Y0032571D01*
X0237290Y0032456D01*
X0237133Y0032344D01*
X0236973Y0032237D01*
X0236810Y0032133D01*
X0236644Y0032034D01*
X0236477Y0031938D01*
X0236307Y0031846D01*
X0236135Y0031759D01*
X0235961Y0031675D01*
X0235785Y0031596D01*
X0235607Y0031522D01*
X0235427Y0031451D01*
X0235246Y0031385D01*
X0235063Y0031323D01*
X0234879Y0031266D01*
X0234693Y0031213D01*
X0234506Y0031165D01*
X0234318Y0031121D01*
X0234129Y0031082D01*
X0233939Y0031047D01*
X0233749Y0031017D01*
X0233558Y0030991D01*
X0233366Y0030970D01*
X0233173Y0030954D01*
X0232981Y0030942D01*
X0232788Y0030935D01*
X0232595Y0030933D01*
X0238741Y0044055D02*
X0238614Y0044203D01*
X0238484Y0044348D01*
X0238351Y0044489D01*
X0238214Y0044628D01*
X0238074Y0044763D01*
X0237930Y0044894D01*
X0237783Y0045022D01*
X0237634Y0045147D01*
X0237481Y0045268D01*
X0237326Y0045385D01*
X0237167Y0045498D01*
X0237006Y0045607D01*
X0236842Y0045712D01*
X0236676Y0045814D01*
X0236507Y0045911D01*
X0236337Y0046004D01*
X0236163Y0046093D01*
X0235988Y0046178D01*
X0235811Y0046258D01*
X0235632Y0046334D01*
X0235451Y0046406D01*
X0235268Y0046473D01*
X0235084Y0046536D01*
X0234898Y0046594D01*
X0234711Y0046648D01*
X0234523Y0046697D01*
X0234333Y0046742D01*
X0234143Y0046782D01*
X0233951Y0046817D01*
X0233759Y0046848D01*
X0233566Y0046874D01*
X0233372Y0046895D01*
X0233178Y0046912D01*
X0232984Y0046924D01*
X0232790Y0046931D01*
X0232595Y0046933D01*
D15*
X0151795Y0138933D03*
X0123395Y0138933D03*
D16*
X0120524Y0110786D02*
X0119290Y0110786D01*
X0119907Y0110786D02*
X0119907Y0107083D01*
X0119290Y0107083D02*
X0120524Y0107083D01*
X0118075Y0107083D02*
X0116841Y0108317D01*
X0117458Y0108317D02*
X0115607Y0108317D01*
X0115607Y0107083D02*
X0115607Y0110786D01*
X0117458Y0110786D01*
X0118075Y0110169D01*
X0118075Y0108935D01*
X0117458Y0108317D01*
X0116848Y0100786D02*
X0114379Y0100786D01*
X0115613Y0100786D02*
X0115613Y0097083D01*
X0113164Y0097700D02*
X0112547Y0097083D01*
X0111313Y0097083D01*
X0110696Y0097700D01*
X0110696Y0100169D01*
X0111313Y0100786D01*
X0112547Y0100786D01*
X0113164Y0100169D01*
X0118062Y0100169D02*
X0118062Y0099552D01*
X0118679Y0098935D01*
X0119914Y0098935D01*
X0120531Y0098317D01*
X0120531Y0097700D01*
X0119914Y0097083D01*
X0118679Y0097083D01*
X0118062Y0097700D01*
X0118062Y0100169D02*
X0118679Y0100786D01*
X0119914Y0100786D01*
X0120531Y0100169D01*
X0119914Y0090786D02*
X0118679Y0090786D01*
X0118062Y0090169D01*
X0118062Y0089552D01*
X0118679Y0088935D01*
X0119914Y0088935D01*
X0120531Y0088317D01*
X0120531Y0087700D01*
X0119914Y0087083D01*
X0118679Y0087083D01*
X0118062Y0087700D01*
X0115613Y0087083D02*
X0115613Y0090786D01*
X0114379Y0090786D02*
X0116848Y0090786D01*
X0113164Y0090169D02*
X0113164Y0088935D01*
X0112547Y0088317D01*
X0110696Y0088317D01*
X0110696Y0087083D02*
X0110696Y0090786D01*
X0112547Y0090786D01*
X0113164Y0090169D01*
X0111930Y0088317D02*
X0113164Y0087083D01*
X0119914Y0090786D02*
X0120531Y0090169D01*
X0119914Y0080786D02*
X0118062Y0080786D01*
X0118062Y0077083D01*
X0118062Y0078317D02*
X0119914Y0078317D01*
X0120531Y0078935D01*
X0120531Y0080169D01*
X0119914Y0080786D01*
X0119296Y0078317D02*
X0120531Y0077083D01*
X0115613Y0077083D02*
X0115613Y0080786D01*
X0114379Y0080786D02*
X0116848Y0080786D01*
X0113164Y0080169D02*
X0112547Y0080786D01*
X0110696Y0080786D01*
X0110696Y0077083D01*
X0112547Y0077083D01*
X0113164Y0077700D01*
X0113164Y0080169D01*
X0143745Y0080786D02*
X0143745Y0077083D01*
X0143745Y0078317D02*
X0145597Y0078317D01*
X0146214Y0078935D01*
X0146214Y0080169D01*
X0145597Y0080786D01*
X0143745Y0080786D01*
X0144980Y0078317D02*
X0146214Y0077083D01*
X0147428Y0077083D02*
X0149897Y0079552D01*
X0149897Y0080169D01*
X0149280Y0080786D01*
X0148045Y0080786D01*
X0147428Y0080169D01*
X0151111Y0080786D02*
X0152346Y0080786D01*
X0151729Y0080786D02*
X0151729Y0077083D01*
X0152346Y0077083D02*
X0151111Y0077083D01*
X0149897Y0077083D02*
X0147428Y0077083D01*
X0153567Y0077083D02*
X0153567Y0080786D01*
X0156036Y0077083D01*
X0156036Y0080786D01*
X0153580Y0087083D02*
X0152346Y0088317D01*
X0152963Y0088317D02*
X0151111Y0088317D01*
X0149897Y0088317D02*
X0149897Y0087700D01*
X0149280Y0087083D01*
X0148045Y0087083D01*
X0147428Y0087700D01*
X0146214Y0087700D02*
X0145597Y0087083D01*
X0143745Y0087083D01*
X0143745Y0090786D01*
X0145597Y0090786D01*
X0146214Y0090169D01*
X0146214Y0087700D01*
X0148045Y0088935D02*
X0147428Y0089552D01*
X0147428Y0090169D01*
X0148045Y0090786D01*
X0149280Y0090786D01*
X0149897Y0090169D01*
X0151111Y0090786D02*
X0152963Y0090786D01*
X0153580Y0090169D01*
X0153580Y0088935D01*
X0152963Y0088317D01*
X0151111Y0087083D02*
X0151111Y0090786D01*
X0149280Y0088935D02*
X0149897Y0088317D01*
X0149280Y0088935D02*
X0148045Y0088935D01*
X0147428Y0097083D02*
X0149897Y0099552D01*
X0149897Y0100169D01*
X0149280Y0100786D01*
X0148045Y0100786D01*
X0147428Y0100169D01*
X0146214Y0100786D02*
X0143745Y0100786D01*
X0144980Y0100786D02*
X0144980Y0097083D01*
X0147428Y0097083D02*
X0149897Y0097083D01*
X0151111Y0097700D02*
X0151729Y0097083D01*
X0152963Y0097083D01*
X0153580Y0097700D01*
X0153580Y0100169D01*
X0152963Y0100786D01*
X0151729Y0100786D01*
X0151111Y0100169D01*
X0151111Y0097700D01*
X0154795Y0097700D02*
X0154795Y0100786D01*
X0157263Y0100786D02*
X0157263Y0097700D01*
X0156646Y0097083D01*
X0155412Y0097083D01*
X0154795Y0097700D01*
X0158478Y0100786D02*
X0160946Y0100786D01*
X0159712Y0100786D02*
X0159712Y0097083D01*
X0152963Y0107083D02*
X0151111Y0107083D01*
X0151111Y0110786D01*
X0152963Y0110786D01*
X0153580Y0110169D01*
X0153580Y0107700D01*
X0152963Y0107083D01*
X0149897Y0107700D02*
X0149280Y0107083D01*
X0148045Y0107083D01*
X0147428Y0107700D01*
X0147428Y0110169D01*
X0148045Y0110786D01*
X0149280Y0110786D01*
X0149897Y0110169D01*
X0146214Y0110169D02*
X0146214Y0107700D01*
X0145597Y0107083D01*
X0143745Y0107083D01*
X0143745Y0110786D01*
X0145597Y0110786D01*
X0146214Y0110169D01*
X0214696Y0110786D02*
X0217164Y0110786D01*
X0218379Y0110786D02*
X0220848Y0107083D01*
X0222062Y0107083D02*
X0223914Y0107083D01*
X0224531Y0107700D01*
X0224531Y0110169D01*
X0223914Y0110786D01*
X0222062Y0110786D01*
X0222062Y0107083D01*
X0218379Y0107083D02*
X0220848Y0110786D01*
X0215930Y0110786D02*
X0215930Y0107083D01*
X0216547Y0100786D02*
X0214696Y0100786D01*
X0214696Y0097083D01*
X0214696Y0098317D02*
X0216547Y0098317D01*
X0217164Y0098935D01*
X0217164Y0100169D01*
X0216547Y0100786D01*
X0218379Y0100786D02*
X0220848Y0097083D01*
X0222062Y0097083D02*
X0223914Y0097083D01*
X0224531Y0097700D01*
X0224531Y0100169D01*
X0223914Y0100786D01*
X0222062Y0100786D01*
X0222062Y0097083D01*
X0218379Y0097083D02*
X0220848Y0100786D01*
X0217164Y0097083D02*
X0215930Y0098317D01*
X0216547Y0090786D02*
X0214696Y0090786D01*
X0214696Y0087083D01*
X0214696Y0088317D02*
X0216547Y0088317D01*
X0217164Y0088935D01*
X0217164Y0090169D01*
X0216547Y0090786D01*
X0218379Y0090169D02*
X0218379Y0089552D01*
X0218996Y0088935D01*
X0220230Y0088935D01*
X0220848Y0088317D01*
X0220848Y0087700D01*
X0220230Y0087083D01*
X0218996Y0087083D01*
X0218379Y0087700D01*
X0217164Y0087083D02*
X0215930Y0088317D01*
X0218379Y0090169D02*
X0218996Y0090786D01*
X0220230Y0090786D01*
X0220848Y0090169D01*
X0222062Y0090786D02*
X0224531Y0090786D01*
X0223296Y0090786D02*
X0223296Y0087083D01*
X0222679Y0080786D02*
X0222062Y0080169D01*
X0222679Y0080786D02*
X0223914Y0080786D01*
X0224531Y0080169D01*
X0224531Y0079552D01*
X0222062Y0077083D01*
X0224531Y0077083D01*
X0220848Y0077083D02*
X0219613Y0078317D01*
X0220230Y0078317D02*
X0218379Y0078317D01*
X0218379Y0077083D02*
X0218379Y0080786D01*
X0220230Y0080786D01*
X0220848Y0080169D01*
X0220848Y0078935D01*
X0220230Y0078317D01*
X0220848Y0070786D02*
X0220848Y0067083D01*
X0218379Y0070786D01*
X0218379Y0067083D01*
X0217164Y0067700D02*
X0217164Y0068935D01*
X0215930Y0068935D01*
X0214696Y0070169D02*
X0214696Y0067700D01*
X0215313Y0067083D01*
X0216547Y0067083D01*
X0217164Y0067700D01*
X0217164Y0070169D02*
X0216547Y0070786D01*
X0215313Y0070786D01*
X0214696Y0070169D01*
X0222062Y0070786D02*
X0222062Y0067083D01*
X0223914Y0067083D01*
X0224531Y0067700D01*
X0224531Y0070169D01*
X0223914Y0070786D01*
X0222062Y0070786D01*
X0222679Y0117083D02*
X0223914Y0117083D01*
X0224531Y0117700D01*
X0222679Y0117083D02*
X0222062Y0117700D01*
X0222062Y0120169D01*
X0222679Y0120786D01*
X0223914Y0120786D01*
X0224531Y0120169D01*
X0220848Y0120169D02*
X0220230Y0120786D01*
X0218996Y0120786D01*
X0218379Y0120169D01*
X0218379Y0117700D01*
X0218996Y0117083D01*
X0220230Y0117083D01*
X0220848Y0117700D01*
X0217164Y0118317D02*
X0217164Y0120786D01*
X0214696Y0120786D02*
X0214696Y0118317D01*
X0215930Y0117083D01*
X0217164Y0118317D01*
D17*
X0069095Y0093933D03*
D18*
X0052595Y0093933D03*
D19*
X0084845Y0093833D03*
X0084845Y0104733D03*
X0084845Y0115533D03*
X0084845Y0083133D03*
X0084845Y0072333D03*
D20*
X0079845Y0077733D03*
X0079845Y0088533D03*
X0079845Y0099233D03*
X0079845Y0110133D03*
M02*
