%
M48
M72
T01C0.03200
T02C0.04000
T03C0.13000
%
T01
X118595Y43933
X126595Y43933
X138595Y43933
X146595Y43933
X158595Y43933
X166595Y43933
X178595Y43933
X186595Y43933
X172595Y58933
X172595Y68933
X172595Y78933
X172595Y88933
X172595Y98933
X172595Y108933
X172595Y118933
X172595Y128933
X157595Y138933
X167595Y148933
X177595Y148933
X187595Y148933
X197595Y148933
X207595Y148933
X217595Y148933
X227595Y148933
X237595Y148933
X202595Y128933
X202595Y118933
X202595Y108933
X202595Y98933
X202595Y88933
X202595Y78933
X202595Y68933
X202595Y58933
X227595Y38933
X237595Y38933
X117595Y138933
T02
X102595Y115533
X92595Y110133
X102595Y104733
X92595Y99333
X102595Y93933
X92595Y88533
X102595Y83133
X92595Y77733
X102595Y72333
X127595Y78933
X137595Y78933
X137595Y88933
X127595Y88933
X127595Y98933
X137595Y98933
X137595Y108933
X127595Y108933
X232595Y108933
X232595Y98933
X232595Y88933
X232595Y78933
X232595Y68933
X232595Y118933
T03
X97595Y143233
X97595Y44633
M30
