G75*
%MOIN*%
%OFA0B0*%
%FSLAX25Y25*%
%IPPOS*%
%LPD*%
%AMOC8*
5,1,8,0,0,1.08239X$1,22.5*
%
%ADD10C,0.00000*%
%ADD11OC8,0.05200*%
%ADD12C,0.05200*%
%ADD13C,0.05200*%
%ADD14OC8,0.06000*%
%ADD15C,0.06000*%
%ADD16C,0.20000*%
%ADD17C,0.00600*%
D10*
X0052595Y0028933D02*
X0052595Y0157634D01*
X0247516Y0157634D01*
X0247516Y0028933D01*
X0052595Y0028933D01*
D11*
X0126595Y0043933D03*
X0146595Y0043933D03*
X0166595Y0043933D03*
X0186595Y0043933D03*
X0227595Y0038933D03*
X0237595Y0038933D03*
X0157595Y0138933D03*
X0167595Y0148933D03*
X0177595Y0148933D03*
X0187595Y0148933D03*
X0197595Y0148933D03*
X0207595Y0148933D03*
X0217595Y0148933D03*
X0227595Y0148933D03*
X0237595Y0148933D03*
X0117595Y0138933D03*
D12*
X0118595Y0043933D03*
X0138595Y0043933D03*
X0158595Y0043933D03*
X0178595Y0043933D03*
D13*
X0175195Y0058933D02*
X0169995Y0058933D01*
X0169995Y0068933D02*
X0175195Y0068933D01*
X0175195Y0078933D02*
X0169995Y0078933D01*
X0169995Y0088933D02*
X0175195Y0088933D01*
X0175195Y0098933D02*
X0169995Y0098933D01*
X0169995Y0108933D02*
X0175195Y0108933D01*
X0175195Y0118933D02*
X0169995Y0118933D01*
X0169995Y0128933D02*
X0175195Y0128933D01*
X0199995Y0128933D02*
X0205195Y0128933D01*
X0205195Y0118933D02*
X0199995Y0118933D01*
X0199995Y0108933D02*
X0205195Y0108933D01*
X0205195Y0098933D02*
X0199995Y0098933D01*
X0199995Y0088933D02*
X0205195Y0088933D01*
X0205195Y0078933D02*
X0199995Y0078933D01*
X0199995Y0068933D02*
X0205195Y0068933D01*
X0205195Y0058933D02*
X0199995Y0058933D01*
D14*
X0137595Y0078933D03*
X0127595Y0078933D03*
X0127595Y0088933D03*
X0137595Y0088933D03*
X0137595Y0098933D03*
X0127595Y0098933D03*
X0127595Y0108933D03*
X0137595Y0108933D03*
X0102595Y0104733D03*
X0092595Y0099333D03*
X0102595Y0093933D03*
X0092595Y0088533D03*
X0102595Y0083133D03*
X0092595Y0077733D03*
X0102595Y0072333D03*
X0092595Y0110133D03*
X0102595Y0115533D03*
D15*
X0229595Y0118933D02*
X0235595Y0118933D01*
X0235595Y0108933D02*
X0229595Y0108933D01*
X0229595Y0098933D02*
X0235595Y0098933D01*
X0235595Y0088933D02*
X0229595Y0088933D01*
X0229595Y0078933D02*
X0235595Y0078933D01*
X0235595Y0068933D02*
X0229595Y0068933D01*
D16*
X0097595Y0044633D03*
X0097595Y0143233D03*
D17*
X0092595Y0110133D02*
X0093395Y0109333D01*
X0127595Y0109333D01*
X0127595Y0108933D01*
X0127595Y0099133D02*
X0127595Y0098933D01*
X0127595Y0099133D02*
X0092795Y0099133D01*
X0092595Y0099333D01*
X0092795Y0088933D02*
X0092595Y0088533D01*
X0092795Y0088933D02*
X0127595Y0088933D01*
X0127595Y0084733D02*
X0132995Y0084733D01*
X0137195Y0088933D01*
X0137595Y0088933D01*
X0127595Y0084733D02*
X0120995Y0078133D01*
X0092795Y0078133D01*
X0092595Y0077733D01*
X0137595Y0078933D02*
X0157595Y0058933D01*
X0172595Y0058933D01*
X0179195Y0057733D02*
X0179195Y0109933D01*
X0173795Y0115333D01*
X0168395Y0115333D01*
X0165995Y0117733D01*
X0165995Y0121933D01*
X0172595Y0128533D01*
X0172595Y0128933D01*
X0177995Y0133933D02*
X0195995Y0115933D01*
X0195995Y0075733D01*
X0202595Y0069133D01*
X0202595Y0068933D01*
X0202595Y0069133D02*
X0212195Y0078733D01*
X0232595Y0078733D01*
X0232595Y0078933D01*
X0239795Y0076333D02*
X0232595Y0069133D01*
X0232595Y0068933D01*
X0232595Y0068533D01*
X0237395Y0063733D01*
X0237395Y0039133D01*
X0237595Y0038933D01*
X0241595Y0037933D02*
X0238595Y0034933D01*
X0236195Y0034933D01*
X0232595Y0038533D01*
X0227795Y0038533D01*
X0227595Y0038933D01*
X0241595Y0037933D02*
X0241595Y0135133D01*
X0227795Y0148933D01*
X0227595Y0148933D01*
X0227195Y0148933D01*
X0223595Y0152533D01*
X0215795Y0152533D01*
X0212195Y0148933D01*
X0207595Y0148933D01*
X0207395Y0148933D01*
X0203795Y0152533D01*
X0195995Y0152533D01*
X0192395Y0148933D01*
X0187595Y0148933D01*
X0182795Y0148933D01*
X0179195Y0152533D01*
X0171395Y0152533D01*
X0167795Y0148933D01*
X0167595Y0148933D01*
X0167195Y0148933D01*
X0157595Y0139333D01*
X0157595Y0138933D01*
X0177995Y0133933D02*
X0177995Y0148933D01*
X0177595Y0148933D01*
X0202595Y0128933D02*
X0202595Y0128533D01*
X0204395Y0128533D01*
X0213995Y0118933D01*
X0232595Y0118933D01*
X0227795Y0103333D02*
X0212195Y0118933D01*
X0202595Y0118933D01*
X0180395Y0111133D02*
X0180395Y0045733D01*
X0178595Y0043933D01*
X0166595Y0043933D02*
X0166595Y0045133D01*
X0179195Y0057733D01*
X0172595Y0068933D02*
X0172595Y0069133D01*
X0167195Y0069133D01*
X0137795Y0098533D01*
X0137595Y0098933D01*
X0172595Y0118933D02*
X0180395Y0111133D01*
X0202595Y0088933D02*
X0222995Y0088933D01*
X0232595Y0098533D01*
X0232595Y0098933D01*
X0236795Y0103333D02*
X0227795Y0103333D01*
X0236795Y0103333D02*
X0239795Y0100333D01*
X0239795Y0076333D01*
M02*
